<svg width="60" height="60" viewBox="0 0 60 60" fill="none" xmlns="http://www.w3.org/2000/svg">
<g id="check-mark-svgrepo-com 1">
<g id="Group">
<g id="Group_2">
<path id="Vector" d="M30.0002 0C13.458 0 0 13.4579 0 30C0 46.5421 13.458 60 30.0002 60C46.5422 60 60 46.5421 60 30C60 13.4579 46.5422 0 30.0002 0ZM30.0002 55.082C16.1698 55.082 4.918 43.8305 4.918 30C4.918 16.1697 16.1698 4.91803 30.0002 4.91803C43.8304 4.91803 55.082 16.1697 55.082 30C55.082 43.8305 43.8304 55.082 30.0002 55.082Z" fill="#F9A825"/>
<path id="Vector_2" d="M42.978 18.4857L25.1658 36.2983L17.022 28.1544C16.0616 27.1942 14.5047 27.1942 13.5444 28.1544C12.5842 29.1148 12.5842 30.6716 13.5444 31.632L23.427 41.5147C23.9072 41.9947 24.5365 42.2349 25.1658 42.2349C25.7951 42.2349 26.4244 41.9947 26.9046 41.5147L46.4556 21.9636C47.4158 21.0032 47.4158 19.4463 46.4556 18.4859C45.4952 17.5256 43.9382 17.5256 42.978 18.4857Z" fill="#F9A825"/>
</g>
</g>
</g>
</svg>
