<svg width="20" height="20" viewBox="0 0 20 20" fill="none" xmlns="http://www.w3.org/2000/svg">
<path d="M19.2055 0H0.794466C0.427441 0 0.129807 0.297634 0.129807 0.664659V3.95678C0.129807 4.32381 0.427441 4.62144 0.794466 4.62144H1.61678L7.69031 11.7597V19.3353C7.69031 19.5805 7.82523 19.8057 8.04131 19.9213C8.13962 19.9739 8.24742 20 8.3549 20C8.48384 20 8.61246 19.9625 8.72365 19.8883L12.0137 17.695C12.1986 17.5717 12.3097 17.3642 12.3097 17.142V11.7597L18.3832 4.62144H19.2055C19.5726 4.62144 19.8702 4.32381 19.8702 3.95678V0.664659C19.8702 0.297634 19.5726 0 19.2055 0ZM11.1388 11.0845C11.0365 11.2048 10.9804 11.3574 10.9804 11.5152V16.7863L9.01963 18.0934V11.5152C9.01963 11.3574 8.96346 11.2047 8.86117 11.0845L3.36218 4.62144H16.6378L11.1388 11.0845ZM18.5409 3.29212H1.45913V1.32932H18.5409V3.29212Z" fill="white"/>
</svg>
