<svg width="40" height="45" viewBox="0 0 40 45" fill="none" xmlns="http://www.w3.org/2000/svg">
<g id="instagram 1" clip-path="url(#clip0_22_55)">
<path id="instagramsvg" d="M20.0088 12.3926C14.3302 12.3926 9.74986 16.9014 9.74986 22.4912C9.74986 28.0811 14.3302 32.5898 20.0088 32.5898C25.6874 32.5898 30.2677 28.0811 30.2677 22.4912C30.2677 16.9014 25.6874 12.3926 20.0088 12.3926ZM20.0088 29.0566C16.3391 29.0566 13.3391 26.1123 13.3391 22.4912C13.3391 18.8701 16.3302 15.9258 20.0088 15.9258C23.6874 15.9258 26.6784 18.8701 26.6784 22.4912C26.6784 26.1123 23.6784 29.0566 20.0088 29.0566V29.0566ZM33.0802 11.9795C33.0802 13.2891 32.0088 14.335 30.6874 14.335C29.357 14.335 28.2945 13.2803 28.2945 11.9795C28.2945 10.6787 29.3659 9.62402 30.6874 9.62402C32.0088 9.62402 33.0802 10.6787 33.0802 11.9795ZM39.8749 14.3701C39.7231 11.2148 38.9909 8.41992 36.6427 6.11719C34.3034 3.81445 31.4641 3.09375 28.2588 2.93555C24.9552 2.75098 15.0534 2.75098 11.7499 2.93555C8.55343 3.08496 5.71415 3.80566 3.36593 6.1084C1.01772 8.41113 0.294503 11.2061 0.133789 14.3613C-0.0537109 17.6133 -0.0537109 27.3603 0.133789 30.6123C0.285575 33.7676 1.01772 36.5625 3.36593 38.8652C5.71415 41.168 8.5445 41.8887 11.7499 42.0469C15.0534 42.2314 24.9552 42.2314 28.2588 42.0469C31.4641 41.8975 34.3034 41.1768 36.6427 38.8652C38.982 36.5625 39.7141 33.7676 39.8749 30.6123C40.0624 27.3603 40.0624 17.6221 39.8749 14.3701V14.3701ZM35.607 34.1016C34.9106 35.8242 33.5624 37.1514 31.8034 37.8457C29.1695 38.874 22.9195 38.6367 20.0088 38.6367C17.0981 38.6367 10.8391 38.8652 8.21415 37.8457C6.46415 37.1602 5.11593 35.833 4.41057 34.1016C3.36593 31.5088 3.607 25.3564 3.607 22.4912C3.607 19.626 3.37486 13.4648 4.41057 10.8809C5.107 9.1582 6.45522 7.83105 8.21415 7.13672C10.8481 6.1084 17.0981 6.3457 20.0088 6.3457C22.9195 6.3457 29.1784 6.11719 31.8034 7.13672C33.5534 7.82227 34.9016 9.14941 35.607 10.8809C36.6516 13.4736 36.4106 19.626 36.4106 22.4912C36.4106 25.3564 36.6516 31.5176 35.607 34.1016Z" fill="white"/>
</g>
<defs>
<clipPath id="clip0_22_55">
<rect width="40" height="45" fill="white"/>
</clipPath>
</defs>
</svg>
