<svg width="30" height="35" viewBox="0 0 30 35" fill="none" xmlns="http://www.w3.org/2000/svg">
<g id="linkedin-in 1">
<path id="linkedinsvg" d="M6.71518 30.625H0.495536V10.1787H6.71518V30.625ZM3.60201 7.38964C1.61317 7.38964 0 5.708 0 3.67772C1.42353e-08 2.70251 0.379496 1.76724 1.055 1.07765C1.73051 0.388074 2.6467 0.000671387 3.60201 0.000671387C4.55732 0.000671387 5.47351 0.388074 6.14901 1.07765C6.82452 1.76724 7.20402 2.70251 7.20402 3.67772C7.20402 5.708 5.59018 7.38964 3.60201 7.38964ZM29.9933 30.625H23.7871V20.6719C23.7871 18.2998 23.7402 15.2578 20.5533 15.2578C17.3196 15.2578 16.8241 17.8349 16.8241 20.501V30.625H10.6112V10.1787H16.5763V12.9678H16.6634C17.4937 11.3613 19.5221 9.666 22.5482 9.666C28.8429 9.666 30 13.8974 30 19.3935V30.625H29.9933Z" fill="white"/>
</g>
</svg>
