<svg width="88" height="88" viewBox="0 0 88 88" fill="none" xmlns="http://www.w3.org/2000/svg">
<g id="Logo">
<g id="Combined-Shape">
<path id="XMLID_76_" d="M62.3169 18.6262C62.2381 18.6262 62.1594 18.6262 62.0806 18.5966L23.1095 4.30064L23.0045 4.65656L22.8207 4.3303L3.46643 17.9737C3.2826 18.0924 3.07251 18.1517 2.86243 18.0924C2.65234 18.033 2.49478 17.8847 2.36347 17.7068C2.25843 17.4992 2.20591 17.2619 2.25843 17.0246C2.31095 16.7873 2.44225 16.6094 2.62608 16.4907L22.2167 2.66937C22.348 2.58039 22.4793 2.55073 22.6106 2.52107L22.7419 2.10583L22.952 2.49141C23.0833 2.46175 23.2146 2.46175 23.3721 2.52107L62.5795 16.906C62.7896 16.9653 62.9472 17.1432 63.026 17.3509C63.131 17.5585 63.131 17.7958 63.0785 18.033C62.9734 18.389 62.6583 18.6262 62.3169 18.6262V18.6262Z" fill="#8E8E8E"/>
</g>
<g id="Rectangle-8">
<path id="XMLID_67_" d="M73.2677 25.5073C73.4252 25.5073 73.5303 25.6259 73.5303 25.8039V39.4473C73.5303 39.6252 73.4252 39.7439 73.2677 39.7439C73.1101 39.7439 73.0051 39.6252 73.0051 39.4473V25.8039C73.0051 25.6259 73.1101 25.5073 73.2677 25.5073Z" fill="url(#paint0_linear_6_49)"/>
<path id="XMLID_74_" d="M73.2677 40.337C72.8212 40.337 72.4798 39.9515 72.4798 39.4473V25.8039C72.4798 25.2996 72.8212 24.9141 73.2677 24.9141C73.7141 24.9141 74.0555 25.2996 74.0555 25.8039V39.4473C74.0555 39.9515 73.7141 40.337 73.2677 40.337Z" fill="url(#paint1_linear_6_49)"/>
</g>
<g id="Group-3">
<g id="Rectangle-7">
<path id="XMLID_71_" d="M22.6631 34.8797L19.6956 31.5281L22.6631 28.1766L25.6306 31.5281L22.6631 34.8797ZM21.1925 31.5281L22.6894 33.2187L24.1862 31.5281L22.6894 29.8375L21.1925 31.5281V31.5281Z" fill="white"/>
</g>
<g id="Rectangle-7_1_">
<path id="XMLID_68_" d="M22.6631 39.9218L19.6956 36.5703L22.6631 33.2188L25.6306 36.5703L22.6631 39.9218ZM21.1925 36.5703L22.6894 38.2609L24.1862 36.5703L22.6894 34.8797L21.1925 36.5703V36.5703Z" fill="white"/>
</g>
</g>
<g id="Rectangle-13">
<path id="XMLID_34_" d="M22.8469 0.593201C23.4246 0.593201 23.8973 1.12707 23.8973 1.77958C23.8973 2.4321 23.4246 2.96597 22.8469 2.96597C22.2692 2.96597 21.7965 2.4321 21.7965 1.77958C21.7965 1.12707 22.2692 0.593201 22.8469 0.593201Z" fill="#8E8E8E"/>
<path id="XMLID_64_" d="M22.8469 3.55915C21.9803 3.55915 21.2713 2.75834 21.2713 1.77958C21.2713 0.800809 21.9803 0 22.8469 0C23.7135 0 24.4226 0.800809 24.4226 1.77958C24.4226 2.75834 23.7135 3.55915 22.8469 3.55915ZM22.8469 1.18638C22.558 1.18638 22.3217 1.45332 22.3217 1.77958C22.3217 2.10583 22.558 2.37277 22.8469 2.37277C23.1358 2.37277 23.3721 2.10583 23.3721 1.77958C23.3721 1.45332 23.1358 1.18638 22.8469 1.18638Z" fill="#8E8E8E"/>
</g>
<g id="Triangle">
<path id="XMLID_30_" d="M22.8469 2.96597L25.9982 21.6515H19.6956L22.8469 2.96597Z" fill="#D9D9D9"/>
<path id="XMLID_31_" d="M26.6285 22.2447H19.0654L22.3217 2.84732H23.3721L26.6285 22.2447ZM20.3259 21.0583H25.368L22.8469 6.13954L20.3259 21.0583Z" fill="#8E8E8E"/>
</g>
<g id="Combined-Shape_1_">
<path id="XMLID_47_" d="M20.2208 42.4132C19.6431 42.4132 19.1704 41.8793 19.1704 41.2268V29.363H18.12C17.5422 29.363 17.0695 28.8291 17.0695 28.1766C17.0695 27.5241 17.5422 26.9902 18.12 26.9902H19.1704V25.8038H18.12C17.5422 25.8038 17.0695 25.27 17.0695 24.6175C17.0695 23.9649 17.5422 23.4311 18.12 23.4311H19.1704V21.0583C19.1704 20.4058 19.6431 19.8719 20.2208 19.8719C20.7986 19.8719 21.2713 20.4058 21.2713 21.0583V23.4311H24.4226V21.0583C24.4226 20.4058 24.8953 19.8719 25.473 19.8719C26.0507 19.8719 26.5234 20.4058 26.5234 21.0583V23.4311H27.5739C28.1516 23.4311 28.6243 23.9649 28.6243 24.6175C28.6243 25.27 28.1516 25.8038 27.5739 25.8038H26.5234V26.9902H27.5739C28.1516 26.9902 28.6243 27.5241 28.6243 28.1766C28.6243 28.8291 28.1516 29.363 27.5739 29.363H26.5234V38.8541C26.5234 39.5066 26.0507 40.0404 25.473 40.0404C24.8953 40.0404 24.4226 39.5066 24.4226 38.8541V29.363H21.2713V41.2268C21.2713 41.8793 20.7986 42.4132 20.2208 42.4132ZM20.2208 28.1766V41.2268V28.1766ZM20.2208 28.1766H25.473V38.8541V24.6175V28.1766H20.2208ZM18.12 28.1766H20.2208H18.12ZM21.2713 26.9902H24.4226V25.8038H21.2713V26.9902ZM18.12 24.6175H20.2208H18.12Z" fill="url(#paint2_linear_6_49)"/>
</g>
<g id="Combined-Shape_2_">
<path id="XMLID_53_" d="M84.0346 22.2447H5.25216C4.67443 22.2447 4.20173 21.7108 4.20173 21.0583C4.20173 20.4058 4.67443 19.8719 5.25216 19.8719H84.0346C84.6124 19.8719 85.0851 20.4058 85.0851 21.0583C85.0851 21.7108 84.6124 22.2447 84.0346 22.2447ZM79.8329 18.6855H1.05043C0.472695 18.6855 0 18.1517 0 17.4992C0 16.8466 0.472695 16.3128 1.05043 16.3128H79.8329C80.4106 16.3128 80.8833 16.8466 80.8833 17.4992C80.8833 18.1517 80.4106 18.6855 79.8329 18.6855Z" fill="#D9D9D9"/>
</g>
<g id="Combined-Shape_3_">
<path id="XMLID_48_" d="M69.3286 22.8379H77.2068C77.3644 22.8379 77.4694 22.9565 77.4694 23.1345C77.4694 23.3124 77.3644 23.4311 77.2068 23.4311H69.3286C69.171 23.4311 69.0659 23.3124 69.0659 23.1345C69.0659 22.9565 69.171 22.8379 69.3286 22.8379ZM70.379 24.0243H76.1564C76.3139 24.0243 76.419 24.1429 76.419 24.3209C76.419 24.4988 76.3139 24.6175 76.1564 24.6175H70.379C70.2214 24.6175 70.1164 24.4988 70.1164 24.3209C70.1164 24.1429 70.2214 24.0243 70.379 24.0243ZM71.4294 25.2107H75.1059C75.2635 25.2107 75.3685 25.3293 75.3685 25.5073C75.3685 25.6852 75.2635 25.8038 75.1059 25.8038H71.4294C71.2719 25.8038 71.1668 25.6852 71.1668 25.5073C71.1668 25.3293 71.2719 25.2107 71.4294 25.2107Z" fill="#EBEBEB"/>
<path id="XMLID_52_" d="M75.1059 26.397H71.4294C70.983 26.397 70.6416 26.0115 70.6416 25.5072C70.6416 25.3886 70.6679 25.2996 70.6941 25.2106H70.379C69.9326 25.2106 69.5912 24.8251 69.5912 24.3209C69.5912 24.2022 69.6174 24.1132 69.6437 24.0243H69.3286C68.8821 24.0243 68.5407 23.6387 68.5407 23.1345C68.5407 22.6303 68.8821 22.2447 69.3286 22.2447H77.2068C77.6532 22.2447 77.9946 22.6303 77.9946 23.1345C77.9946 23.6387 77.6532 24.0243 77.2068 24.0243H76.8917C76.9179 24.1132 76.9442 24.2022 76.9442 24.3209C76.9442 24.8251 76.6028 25.2106 76.1564 25.2106H75.8412C75.8675 25.2996 75.8938 25.3886 75.8938 25.5072C75.8938 26.0115 75.5524 26.397 75.1059 26.397Z" fill="#EBEBEB"/>
</g>
<path id="Rectangle-5" d="M32.3008 56.0566H42.8051V70.2932H32.3008V56.0566Z" fill="white"/>
<path id="Rectangle-5-Copy" d="M47.0069 56.0566H57.5112V70.2932H47.0069V56.0566Z" fill="white"/>
<path id="Combined-Shape_4_" d="M80.8875 51.1004H70.8559C70.567 51.1004 70.3044 51.2191 70.1206 51.4564C69.9367 51.664 69.8054 51.9606 69.8054 52.2868V68.8962C69.8054 69.5487 70.2781 70.0826 70.8559 70.0826C71.4336 70.0826 71.9063 69.5487 71.9063 68.8962V53.4732H86.6124C86.8225 53.4732 87.0063 53.3546 87.0851 53.147C87.2426 52.8504 87.1376 52.4648 86.875 52.2868L44.595 25L2.28887 52.2868C2.10504 52.4055 2 52.6131 2 52.8207C2 53.1766 2.26261 53.4435 2.55148 53.4435H17.2838V68.8665C17.2838 69.519 17.7565 70.0529 18.3342 70.0529C18.912 70.0529 19.3847 69.519 19.3847 68.8665V52.2572C19.3847 51.9309 19.2796 51.6343 19.0695 51.4267C18.8857 51.2191 18.6231 51.0708 18.3342 51.0708H8.3026L44.595 27.3728L80.8875 51.1004Z" fill="white"/>
<g id="Group-4">
<mask id="mask0_6_49" style="mask-type:alpha" maskUnits="userSpaceOnUse" x="2" y="32" width="31" height="39">
<g id="mask-2_2_">
<g id="XMLID_27_">
<path id="path-1_2_" d="M2.36347 32.3289H32.3008V70.2932H2.36347V32.3289Z" fill="white"/>
</g>
</g>
</mask>
<g mask="url(#mask0_6_49)">
<path id="Combined-Shape-Copy" d="M80.8613 52.1004H70.8296C70.5408 52.1004 70.2781 52.2191 70.0943 52.4564C69.9105 52.664 69.7792 52.9606 69.7792 53.2868V69.8962C69.7792 70.5487 70.2519 71.0826 70.8296 71.0826C71.4074 71.0826 71.8801 70.5487 71.8801 69.8962V54.4732H86.5861C86.7962 54.4732 86.98 54.3546 87.0588 54.147C87.2164 53.8504 87.1113 53.4648 86.8487 53.2868L44.5688 26L2.28887 53.2868C2.10504 53.4055 2 53.6131 2 53.8207C2 54.1766 2.26261 54.4435 2.55148 54.4435H17.2575V69.8665C17.2575 70.519 17.7302 71.0529 18.308 71.0529C18.8857 71.0529 19.3584 70.519 19.3584 69.8665V53.2572C19.3584 52.9309 19.2534 52.6343 19.0433 52.4267C18.8594 52.2191 18.5968 52.0708 18.308 52.0708H8.27634L44.5688 28.3431L80.8613 52.1004Z" fill="#8E8E8E"/>
</g>
</g>
<path id="&#208;&#161;&#208;&#181;&#208;&#178;&#208;&#181;&#209;&#128;&#209;&#143;&#208;&#189;&#208;&#184;&#208;&#157;" d="M7.08 75.4C7.08 74.5253 7.272 73.7627 7.656 73.112C8.05067 72.4507 8.56267 71.9333 9.192 71.56C9.82133 71.1867 10.504 71 11.24 71C11.7733 71 12.2587 71.0693 12.696 71.208C13.144 71.3467 13.5493 71.544 13.912 71.8C14.2747 72.0453 14.584 72.3333 14.84 72.664V70.872C14.3707 70.456 13.8587 70.1467 13.304 69.944C12.7493 69.7413 12.0613 69.64 11.24 69.64C10.4613 69.64 9.73067 69.784 9.048 70.072C8.376 70.3493 7.784 70.7493 7.272 71.272C6.76 71.784 6.36 72.392 6.072 73.096C5.784 73.8 5.64 74.568 5.64 75.4C5.64 76.232 5.784 77 6.072 77.704C6.36 78.408 6.76 79.0213 7.272 79.544C7.784 80.056 8.376 80.456 9.048 80.744C9.73067 81.0213 10.4613 81.16 11.24 81.16C12.0613 81.16 12.7493 81.0587 13.304 80.856C13.8587 80.6533 14.3707 80.344 14.84 79.928V78.136C14.584 78.4667 14.2747 78.76 13.912 79.016C13.5493 79.2613 13.144 79.4533 12.696 79.592C12.2587 79.7307 11.7733 79.8 11.24 79.8C10.504 79.8 9.82133 79.6133 9.192 79.24C8.56267 78.8667 8.05067 78.3493 7.656 77.688C7.272 77.0267 7.08 76.264 7.08 75.4ZM17.3291 77.64H23.6171C23.6278 77.576 23.6331 77.512 23.6331 77.448C23.6331 77.384 23.6331 77.32 23.6331 77.256C23.6331 76.4773 23.4891 75.8107 23.2011 75.256C22.9131 74.6907 22.5078 74.2533 21.9851 73.944C21.4625 73.6347 20.8545 73.48 20.1611 73.48C19.5318 73.48 18.9611 73.608 18.4491 73.864C17.9478 74.12 17.5371 74.4773 17.2171 74.936C16.8971 75.3947 16.6838 75.928 16.5771 76.536C16.5558 76.664 16.5398 76.792 16.5291 76.92C16.5185 77.048 16.5131 77.1813 16.5131 77.32C16.5131 78.056 16.6625 78.7173 16.9611 79.304C17.2705 79.88 17.6865 80.3333 18.2091 80.664C18.7425 80.9947 19.3398 81.16 20.0011 81.16C20.6411 81.16 21.1745 81.0853 21.6011 80.936C22.0278 80.776 22.3905 80.5573 22.6891 80.28C22.9878 79.992 23.2598 79.6613 23.5051 79.288L22.4651 78.632C22.3051 78.8987 22.1131 79.1333 21.8891 79.336C21.6651 79.528 21.4091 79.6827 21.1211 79.8C20.8438 79.9067 20.5238 79.96 20.1611 79.96C19.6811 79.96 19.2651 79.8587 18.9131 79.656C18.5611 79.4533 18.2891 79.1547 18.0971 78.76C17.9051 78.3653 17.8091 77.8853 17.8091 77.32L17.8411 76.84C17.8411 76.3813 17.9425 75.9867 18.1451 75.656C18.3585 75.3147 18.6411 75.0533 18.9931 74.872C19.3451 74.6907 19.7345 74.6 20.1611 74.6C20.5878 74.6 20.9451 74.6853 21.2331 74.856C21.5318 75.016 21.7611 75.2453 21.9211 75.544C22.0918 75.832 22.1985 76.168 22.2411 76.552H17.3291V77.64ZM26.1395 77.16V77.832H28.2675C28.5128 77.832 28.7208 77.8587 28.8915 77.912C29.0728 77.9547 29.2168 78.024 29.3235 78.12C29.4408 78.216 29.5262 78.3227 29.5795 78.44C29.6435 78.5573 29.6755 78.6907 29.6755 78.84C29.6755 79.128 29.5582 79.3733 29.3235 79.576C29.0995 79.7787 28.7475 79.88 28.2675 79.88H26.1395V81H28.5875C29.4302 81 30.0328 80.808 30.3955 80.424C30.7688 80.0293 30.9555 79.5547 30.9555 79C30.9555 78.52 30.8382 78.1467 30.6035 77.88C30.3688 77.6133 30.0488 77.4267 29.6435 77.32C29.2382 77.2133 28.7795 77.16 28.2675 77.16H26.1395ZM26.1395 77.48H28.1075C28.5662 77.48 28.9822 77.416 29.3555 77.288C29.7395 77.1493 30.0488 76.9467 30.2835 76.68C30.5182 76.4027 30.6355 76.056 30.6355 75.64C30.6355 75.16 30.5182 74.776 30.2835 74.488C30.0488 74.1893 29.7395 73.976 29.3555 73.848C28.9822 73.7093 28.5662 73.64 28.1075 73.64H26.1395V74.76H28.1075C28.4915 74.76 28.7955 74.8507 29.0195 75.032C29.2435 75.2027 29.3555 75.432 29.3555 75.72C29.3555 75.8587 29.3235 75.992 29.2595 76.12C29.2062 76.2373 29.1262 76.344 29.0195 76.44C28.9128 76.536 28.7795 76.6107 28.6195 76.664C28.4702 76.7067 28.2995 76.728 28.1075 76.728H26.1395V77.48ZM25.3875 73.64V81H26.6675V73.64H25.3875ZM32.8135 77.64H39.1015C39.1122 77.576 39.1175 77.512 39.1175 77.448C39.1175 77.384 39.1175 77.32 39.1175 77.256C39.1175 76.4773 38.9735 75.8107 38.6855 75.256C38.3975 74.6907 37.9922 74.2533 37.4695 73.944C36.9468 73.6347 36.3388 73.48 35.6455 73.48C35.0162 73.48 34.4455 73.608 33.9335 73.864C33.4322 74.12 33.0215 74.4773 32.7015 74.936C32.3815 75.3947 32.1682 75.928 32.0615 76.536C32.0402 76.664 32.0242 76.792 32.0135 76.92C32.0028 77.048 31.9975 77.1813 31.9975 77.32C31.9975 78.056 32.1468 78.7173 32.4455 79.304C32.7548 79.88 33.1708 80.3333 33.6935 80.664C34.2268 80.9947 34.8242 81.16 35.4855 81.16C36.1255 81.16 36.6588 81.0853 37.0855 80.936C37.5122 80.776 37.8748 80.5573 38.1735 80.28C38.4722 79.992 38.7442 79.6613 38.9895 79.288L37.9495 78.632C37.7895 78.8987 37.5975 79.1333 37.3735 79.336C37.1495 79.528 36.8935 79.6827 36.6055 79.8C36.3282 79.9067 36.0082 79.96 35.6455 79.96C35.1655 79.96 34.7495 79.8587 34.3975 79.656C34.0455 79.4533 33.7735 79.1547 33.5815 78.76C33.3895 78.3653 33.2935 77.8853 33.2935 77.32L33.3255 76.84C33.3255 76.3813 33.4268 75.9867 33.6295 75.656C33.8428 75.3147 34.1255 75.0533 34.4775 74.872C34.8295 74.6907 35.2188 74.6 35.6455 74.6C36.0722 74.6 36.4295 74.6853 36.7175 74.856C37.0162 75.016 37.2455 75.2453 37.4055 75.544C37.5762 75.832 37.6828 76.168 37.7255 76.552H32.8135V77.64ZM42.0719 84.52V73.64H40.7919V84.52H42.0719ZM48.2319 77.32C48.2319 76.52 48.0665 75.8373 47.7359 75.272C47.4052 74.696 46.9625 74.2533 46.4079 73.944C45.8639 73.6347 45.2559 73.48 44.5839 73.48C43.9759 73.48 43.4372 73.6347 42.9679 73.944C42.5092 74.2533 42.1465 74.696 41.8799 75.272C41.6239 75.8373 41.4959 76.52 41.4959 77.32C41.4959 78.1093 41.6239 78.792 41.8799 79.368C42.1465 79.944 42.5092 80.3867 42.9679 80.696C43.4372 81.0053 43.9759 81.16 44.5839 81.16C45.2559 81.16 45.8639 81.0053 46.4079 80.696C46.9625 80.3867 47.4052 79.944 47.7359 79.368C48.0665 78.792 48.2319 78.1093 48.2319 77.32ZM46.9359 77.32C46.9359 77.8853 46.8185 78.3653 46.5839 78.76C46.3599 79.1547 46.0559 79.4533 45.6719 79.656C45.2985 79.8587 44.8825 79.96 44.4239 79.96C44.0505 79.96 43.6825 79.8587 43.3199 79.656C42.9572 79.4533 42.6585 79.1547 42.4239 78.76C42.1892 78.3653 42.0719 77.8853 42.0719 77.32C42.0719 76.7547 42.1892 76.2747 42.4239 75.88C42.6585 75.4853 42.9572 75.1867 43.3199 74.984C43.6825 74.7813 44.0505 74.68 44.4239 74.68C44.8825 74.68 45.2985 74.7813 45.6719 74.984C46.0559 75.1867 46.3599 75.4853 46.5839 75.88C46.8185 76.2747 46.9359 76.7547 46.9359 77.32ZM51.0529 81L53.7729 77.16H52.3649L49.6449 81H51.0529ZM55.7249 81V73.64H54.4449V81H55.7249ZM54.9729 76.936H52.6849C52.3755 76.936 52.1142 76.8987 51.9009 76.824C51.6982 76.7387 51.5435 76.616 51.4369 76.456C51.3302 76.296 51.2769 76.0933 51.2769 75.848C51.2769 75.6027 51.3302 75.4 51.4369 75.24C51.5435 75.08 51.6982 74.9627 51.9009 74.888C52.1142 74.8027 52.3755 74.76 52.6849 74.76H54.9729V73.64H52.6849C52.1835 73.64 51.7249 73.7147 51.3089 73.864C50.9035 74.0133 50.5835 74.248 50.3489 74.568C50.1142 74.888 49.9969 75.3147 49.9969 75.848C49.9969 76.3707 50.1142 76.7973 50.3489 77.128C50.5835 77.448 50.9035 77.6827 51.3089 77.832C51.7249 77.9813 52.1835 78.056 52.6849 78.056H54.9729V76.936ZM58.4833 77.72H63.9233V76.52H58.4833V77.72ZM63.0913 73.64V81H64.3713V73.64H63.0913ZM57.7313 73.64V81H59.0113V73.64H57.7313ZM72.9381 74.92L73.0181 73.08L66.9381 79.72L66.8581 81.56L72.9381 74.92ZM68.1381 73.64H66.8581V81.56L68.1381 79.8V73.64ZM73.0181 73.08L71.7381 74.84V81H73.0181V73.08ZM76.3289 75.56H84.0089V74.28H76.3289V75.56ZM83.0969 69.8V81H84.4569V69.8H83.0969ZM75.5769 69.8V81H76.9369V69.8H75.5769Z" fill="white"/>
</g>
<defs>
<linearGradient id="paint0_linear_6_49" x1="73.2677" y1="25.5073" x2="73.2677" y2="39.7439" gradientUnits="userSpaceOnUse">
<stop stop-color="white" stop-opacity="0"/>
<stop offset="0.0001" stop-color="white" stop-opacity="0.236364"/>
<stop offset="0.286458" stop-color="white"/>
</linearGradient>
<linearGradient id="paint1_linear_6_49" x1="73.2677" y1="24.9141" x2="73.2677" y2="40.337" gradientUnits="userSpaceOnUse">
<stop stop-color="white" stop-opacity="0"/>
<stop offset="0.0001" stop-color="white" stop-opacity="0.236364"/>
<stop offset="0.286458" stop-color="white"/>
</linearGradient>
<linearGradient id="paint2_linear_6_49" x1="22.8469" y1="19.8719" x2="22.8469" y2="42.4132" gradientUnits="userSpaceOnUse">
<stop stop-color="white" stop-opacity="0"/>
<stop offset="0.270833" stop-color="white"/>
</linearGradient>
</defs>
</svg>
