<svg width="80" height="80" viewBox="0 0 80 80" fill="none" xmlns="http://www.w3.org/2000/svg">
<g id="logo3 (1) 1" clip-path="url(#clip0_2_74)">
<g id="Combined-Shape">
<path id="XMLID_76_" d="M56.6517 16.9329C56.5801 16.9329 56.5085 16.9329 56.4369 16.906L21.0087 3.90968L20.9132 4.23324L20.7461 3.93664L3.1513 16.3397C2.98419 16.4476 2.7932 16.5015 2.60221 16.4476C2.41123 16.3937 2.26799 16.2589 2.14862 16.0971C2.05312 15.9083 2.00538 15.6926 2.05312 15.4769C2.10087 15.2612 2.22024 15.0994 2.38735 14.9916L20.197 2.4267C20.3163 2.34581 20.4357 2.31885 20.5551 2.29188L20.6744 1.9144L20.8654 2.26492C20.9848 2.23796 21.1042 2.23796 21.2474 2.29188L56.8905 15.3691C57.0815 15.423 57.2247 15.5848 57.2963 15.7735C57.3918 15.9623 57.3918 16.178 57.3441 16.3937C57.2486 16.7172 56.9621 16.9329 56.6517 16.9329V16.9329Z" fill="#EF6C00"/>
</g>
<g id="Rectangle-8">
<path id="XMLID_67_" d="M66.607 23.1884C66.7502 23.1884 66.8457 23.2963 66.8457 23.458V35.8611C66.8457 36.0229 66.7502 36.1308 66.607 36.1308C66.4637 36.1308 66.3682 36.0229 66.3682 35.8611V23.458C66.3682 23.2963 66.4637 23.1884 66.607 23.1884Z" fill="#EF6C00"/>
<path id="XMLID_74_" d="M66.607 36.67C66.2011 36.67 65.8908 36.3195 65.8908 35.8611V23.458C65.8908 22.9997 66.2011 22.6491 66.607 22.6491C67.0128 22.6491 67.3232 22.9997 67.3232 23.458V35.8611C67.3232 36.3195 67.0128 36.67 66.607 36.67Z" fill="#EF6C00"/>
</g>
<g id="Group-3">
<g id="Rectangle-7">
<path id="XMLID_71_" d="M20.6028 31.7088L17.9051 28.662L20.6028 25.6151L23.3005 28.662L20.6028 31.7088ZM19.2659 28.662L20.6267 30.1989L21.9875 28.662L20.6267 27.1251L19.2659 28.662V28.662Z" fill="#F9A825"/>
</g>
<g id="Rectangle-7_1_">
<path id="XMLID_68_" d="M20.6028 36.2925L17.9051 33.2457L20.6028 30.1989L23.3005 33.2457L20.6028 36.2925ZM19.2659 33.2457L20.6267 34.7826L21.9875 33.2457L20.6267 31.7088L19.2659 33.2457V33.2457Z" fill="#F9A825"/>
</g>
</g>
<g id="Rectangle-13">
<path id="XMLID_34_" d="M20.7699 0.539276C21.2952 0.539276 21.7249 1.02461 21.7249 1.61781C21.7249 2.211 21.2952 2.69634 20.7699 2.69634C20.2447 2.69634 19.815 2.211 19.815 1.61781C19.815 1.02461 20.2447 0.539276 20.7699 0.539276Z" fill="#F9A825"/>
<path id="XMLID_64_" d="M20.7699 3.23559C19.9821 3.23559 19.3375 2.50758 19.3375 1.6178C19.3375 0.728008 19.9821 0 20.7699 0C21.5578 0 22.2023 0.728008 22.2023 1.6178C22.2023 2.50758 21.5578 3.23559 20.7699 3.23559ZM20.7699 1.07853C20.5073 1.07853 20.2925 1.3212 20.2925 1.6178C20.2925 1.91439 20.5073 2.15706 20.7699 2.15706C21.0325 2.15706 21.2474 1.91439 21.2474 1.6178C21.2474 1.3212 21.0325 1.07853 20.7699 1.07853Z" fill="#F9A825"/>
</g>
<g id="Triangle">
<path id="XMLID_30_" d="M20.7699 2.69632L23.6348 19.6832H17.9051L20.7699 2.69632Z" fill="#F9A825"/>
<path id="XMLID_31_" d="M24.2077 20.2224H17.3322L20.2925 2.58847H21.2474L24.2077 20.2224ZM18.4781 19.1439H23.0618L20.7699 5.58139L18.4781 19.1439Z" fill="#F9A825"/>
</g>
<g id="Combined-Shape_1_">
<path id="XMLID_47_" d="M18.3826 38.5575C17.8574 38.5575 17.4276 38.0721 17.4276 37.4789V26.6936H16.4727C15.9475 26.6936 15.5178 26.2083 15.5178 25.6151C15.5178 25.0219 15.9475 24.5366 16.4727 24.5366H17.4276V23.4581H16.4727C15.9475 23.4581 15.5178 22.9727 15.5178 22.3795C15.5178 21.7863 15.9475 21.301 16.4727 21.301H17.4276V19.1439C17.4276 18.5507 17.8574 18.0654 18.3826 18.0654C18.9078 18.0654 19.3375 18.5507 19.3375 19.1439V21.301H22.2023V19.1439C22.2023 18.5507 22.6321 18.0654 23.1573 18.0654C23.6825 18.0654 24.1122 18.5507 24.1122 19.1439V21.301H25.0671C25.5924 21.301 26.0221 21.7863 26.0221 22.3795C26.0221 22.9727 25.5924 23.4581 25.0671 23.4581H24.1122V24.5366H25.0671C25.5924 24.5366 26.0221 25.0219 26.0221 25.6151C26.0221 26.2083 25.5924 26.6936 25.0671 26.6936H24.1122V35.3219C24.1122 35.9151 23.6825 36.4004 23.1573 36.4004C22.6321 36.4004 22.2023 35.9151 22.2023 35.3219V26.6936H19.3375V37.4789C19.3375 38.0721 18.9078 38.5575 18.3826 38.5575ZM18.3826 25.6151V37.4789V25.6151ZM18.3826 25.6151H23.1573V35.3219V22.3795V25.6151H18.3826ZM16.4727 25.6151H18.3826H16.4727ZM19.3375 24.5366H22.2023V23.4581H19.3375V24.5366ZM16.4727 22.3795H18.3826H16.4727Z" fill="#F9A825"/>
</g>
<g id="Rectangle-10">
<path id="XMLID_28_" d="M17.9051 21.8402H23.6347V25.8847H17.9051V21.8402Z" fill="#F9A825"/>
</g>
<g id="Combined-Shape_2_">
<path id="XMLID_53_" d="M76.3951 20.2225H4.77469C4.24948 20.2225 3.81976 19.7371 3.81976 19.1439C3.81976 18.5507 4.24948 18.0654 4.77469 18.0654H76.3951C76.9203 18.0654 77.35 18.5507 77.35 19.1439C77.35 19.7371 76.9203 20.2225 76.3951 20.2225ZM4.77469 19.1439H76.3951H4.77469ZM72.5754 16.9869H0.954939C0.429722 16.9869 0 16.5015 0 15.9083C0 15.3151 0.429722 14.8298 0.954939 14.8298H72.5754C73.1006 14.8298 73.5303 15.3151 73.5303 15.9083C73.5303 16.5015 73.1006 16.9869 72.5754 16.9869ZM0.954939 15.9083H72.5754H0.954939Z" fill="#F9A825"/>
</g>
<g id="Combined-Shape_3_">
<path id="XMLID_48_" d="M63.026 20.7617H70.188C70.3312 20.7617 70.4267 20.8696 70.4267 21.0314C70.4267 21.1931 70.3312 21.301 70.188 21.301H63.026C62.8827 21.301 62.7872 21.1931 62.7872 21.0314C62.7872 20.8696 62.8827 20.7617 63.026 20.7617ZM63.9809 21.8402H69.2331C69.3763 21.8402 69.4718 21.9481 69.4718 22.1099C69.4718 22.2717 69.3763 22.3795 69.2331 22.3795H63.9809C63.8376 22.3795 63.7422 22.2717 63.7422 22.1099C63.7422 21.9481 63.8376 21.8402 63.9809 21.8402ZM64.9358 22.9188H68.2781C68.4214 22.9188 68.5168 23.0266 68.5168 23.1884C68.5168 23.3502 68.4214 23.458 68.2781 23.458H64.9358C64.7926 23.458 64.6971 23.3502 64.6971 23.1884C64.6971 23.0266 64.7926 22.9188 64.9358 22.9188Z" fill="#FFC107"/>
<path id="XMLID_52_" d="M68.2781 23.9973H64.9358C64.53 23.9973 64.2196 23.6468 64.2196 23.1884C64.2196 23.0805 64.2435 22.9997 64.2674 22.9188H63.9809C63.575 22.9188 63.2647 22.5682 63.2647 22.1099C63.2647 22.002 63.2886 21.9211 63.3124 21.8402H63.026C62.6201 21.8402 62.3098 21.4897 62.3098 21.0313C62.3098 20.573 62.6201 20.2224 63.026 20.2224H70.188C70.5938 20.2224 70.9042 20.573 70.9042 21.0313C70.9042 21.4897 70.5938 21.8402 70.188 21.8402H69.9015C69.9254 21.9211 69.9493 22.002 69.9493 22.1099C69.9493 22.5682 69.6389 22.9188 69.2331 22.9188H68.9466C68.9704 22.9997 68.9943 23.0805 68.9943 23.1884C68.9943 23.6468 68.684 23.9973 68.2781 23.9973Z" fill="#F9A825"/>
</g>
<path id="Rectangle-5" d="M29.3644 50.9606H38.9138V63.9029H29.3644V50.9606Z" fill="#F9A825"/>
<path id="Rectangle-5-Copy" d="M42.7335 50.9606H52.2829V63.9029H42.7335V50.9606Z" fill="#F9A825"/>
<path id="Combined-Shape_4_" d="M73.8168 46.6464H64.6971C64.4345 46.6464 64.1958 46.7543 64.0286 46.97C63.8615 47.1587 63.7422 47.4284 63.7422 47.725V62.8244C63.7422 63.4176 64.1719 63.9029 64.6971 63.9029C65.2223 63.9029 65.652 63.4176 65.652 62.8244V48.8035H79.0212C79.2122 48.8035 79.3793 48.6956 79.4509 48.5069C79.5941 48.2373 79.4987 47.8867 79.2599 47.725L40.8236 22.9188L2.36347 47.725C2.19635 47.8328 2.10086 48.0216 2.10086 48.2103C2.10086 48.5339 2.3396 48.7765 2.6022 48.7765H15.9952V62.7974C15.9952 63.3906 16.4249 63.876 16.9502 63.876C17.4754 63.876 17.9051 63.3906 17.9051 62.7974V47.698C17.9051 47.4014 17.8096 47.1318 17.6186 46.943C17.4515 46.7543 17.2128 46.6195 16.9502 46.6195H7.83049L40.8236 25.0758L73.8168 46.6464Z" fill="#F9A825"/>
<g id="Group-4">
<mask id="mask0_2_74" style="mask-type:alpha" maskUnits="userSpaceOnUse" x="2" y="29" width="28" height="35">
<g id="mask-2_2_">
<g id="XMLID_27_">
<path id="path-1_2_" d="M2.14862 29.39H29.3644V63.9029H2.14862V29.39Z" fill="white"/>
</g>
</g>
</mask>
<g mask="url(#mask0_2_74)">
<path id="Combined-Shape-Copy" d="M73.8406 46.6464H64.721C64.4584 46.6464 64.2196 46.7543 64.0525 46.97C63.8854 47.1587 63.766 47.4284 63.766 47.725V62.8244C63.766 63.4176 64.1958 63.9029 64.721 63.9029C65.2462 63.9029 65.6759 63.4176 65.6759 62.8244V48.8035H79.0451C79.2361 48.8035 79.4032 48.6956 79.4748 48.5069C79.618 48.2373 79.5225 47.8867 79.2838 47.725L40.8475 22.9188L2.41123 47.725C2.24411 47.8328 2.14862 48.0216 2.14862 48.2103C2.14862 48.5339 2.38736 48.7765 2.64996 48.7765H16.0191V62.7974C16.0191 63.3906 16.4488 63.876 16.974 63.876C17.4993 63.876 17.929 63.3906 17.929 62.7974V47.698C17.929 47.4014 17.8335 47.1318 17.6425 46.943C17.4754 46.7543 17.2367 46.6195 16.974 46.6195H7.85438L40.8475 25.0489L73.8406 46.6464Z" fill="#EF6C00"/>
</g>
</g>
<g id="name">
<path id="XMLID_24_" d="M8.61832 75.7128C7.56789 76.1442 6.99493 76.2791 6.32647 76.2791C4.55983 76.2791 3.22292 75.4971 2.38735 74.5534C1.38466 73.421 0.835571 71.8571 0.835571 70.3471C0.835571 68.7024 1.45628 67.1655 2.38735 66.1139C3.29454 65.0893 4.65533 64.3074 6.23098 64.3074C6.70845 64.3074 7.52014 64.3883 8.61832 64.9006V68.4867C7.75888 67.3003 6.75619 67.2194 6.3026 67.2194C5.53864 67.2194 4.96568 67.489 4.46434 67.9744C3.84363 68.6215 3.58102 69.5382 3.58102 70.3471C3.58102 71.1291 3.8675 72.0189 4.41659 72.5851C4.87019 73.0435 5.56252 73.367 6.3026 73.367C6.70845 73.367 7.68726 73.3131 8.61832 72.1537V75.7128V75.7128Z" fill="#EF6C00"/>
<path id="XMLID_21_" d="M17.3083 72.6929H12.2232C12.2232 73.0974 12.3665 73.6636 12.6529 73.9872C12.7962 74.1489 13.1065 74.3647 13.6556 74.3647C13.7272 74.3647 14.1331 74.3377 14.4434 74.1489C14.5867 74.0411 14.7538 73.8793 14.8732 73.6366H17.2128C17.1173 74.0681 16.9024 74.6613 16.3772 75.2275C15.852 75.7937 15.088 76.306 13.6079 76.306C12.7007 76.306 11.6264 76.0903 10.7908 75.1196C10.3372 74.6073 9.78812 73.6636 9.78812 72.2076C9.78812 70.9134 10.2178 69.8888 10.8147 69.2147C11.3876 68.5945 12.271 68.0822 13.6079 68.0822C14.3957 68.0822 15.4223 68.271 16.234 69.1338C17.1889 70.1584 17.3083 71.5065 17.3083 72.3694V72.6929V72.6929ZM15.0642 71.1021C14.9925 70.8055 14.8493 70.4819 14.6583 70.2662C14.3479 69.9157 13.8944 69.8618 13.6556 69.8618C13.2498 69.8618 12.9155 69.9696 12.6529 70.2662C12.4858 70.4819 12.3426 70.7516 12.2948 71.1021H15.0642V71.1021Z" fill="#EF6C00"/>
<path id="XMLID_17_" d="M22.9185 68.3249C23.396 68.3249 24.1838 68.3788 24.6613 68.8642C24.9716 69.1877 25.1388 69.7 25.1388 70.2123C25.1388 70.5898 25.0433 71.0482 24.8523 71.3717C24.6852 71.6414 24.3987 71.884 24.1122 72.0189V72.0458C24.2554 72.0728 24.709 72.1806 25.091 72.5851C25.4491 72.9626 25.5685 73.367 25.5685 73.9063C25.5685 74.4995 25.3775 75.0657 25.091 75.3893C24.7329 75.7937 24.1122 76.0364 23.4199 76.0364H18.7168V68.3249H22.9185V68.3249ZM22.083 71.3987C22.4888 71.3987 22.632 71.2909 22.7037 71.2369C22.823 71.1291 22.8947 70.8594 22.8947 70.6977C22.8947 70.5089 22.823 70.3202 22.7275 70.2123C22.5604 70.0505 22.2739 70.0236 22.0591 70.0236H21.1519V71.4257H22.083V71.3987ZM22.2501 74.3647C22.3933 74.3647 22.6559 74.3377 22.8469 74.149C22.9424 74.0411 23.0379 73.8793 23.0379 73.6097C23.0379 73.3131 22.9424 73.1513 22.8469 73.0435C22.6559 72.8278 22.4411 72.8547 22.2262 72.8547H21.1519V74.3916H22.2501V74.3647Z" fill="#EF6C00"/>
<path id="XMLID_14_" d="M34.0436 72.6929H28.9585C28.9585 73.0974 29.1018 73.6636 29.3883 73.9872C29.5315 74.1489 29.8419 74.3647 30.3909 74.3647C30.4626 74.3647 30.8684 74.3377 31.1788 74.1489C31.322 74.0411 31.4891 73.8793 31.6085 73.6366H33.9481C33.8526 74.0681 33.6377 74.6613 33.1125 75.2275C32.5873 75.7937 31.8233 76.306 30.3432 76.306C29.436 76.306 28.3617 76.0903 27.5261 75.1196C27.0725 74.6073 26.5234 73.6636 26.5234 72.2076C26.5234 70.9134 26.9532 69.8888 27.55 69.2147C28.123 68.5945 29.0063 68.0822 30.3432 68.0822C31.131 68.0822 32.1576 68.271 32.9693 69.1338C33.9242 70.1584 34.0436 71.5065 34.0436 72.3694V72.6929V72.6929ZM31.7995 71.1021C31.7279 70.8055 31.5846 70.4819 31.3936 70.2662C31.0833 69.9157 30.6297 69.8618 30.3909 69.8618C29.9851 69.8618 29.6509 69.9696 29.3883 70.2662C29.2211 70.4819 29.0779 70.7516 29.0302 71.1021H31.7995Z" fill="#EF6C00"/>
<path id="XMLID_11_" d="M37.9111 80H35.476V68.3249H37.9111V69.1608C38.3408 68.5676 38.9854 68.0553 40.0119 68.0553C41.0624 68.0553 41.8979 68.5676 42.447 69.1877C43.02 69.8348 43.4975 70.8325 43.4975 72.1807C43.4975 73.4749 43.0439 74.4995 42.3993 75.2275C41.6353 76.0634 40.752 76.306 40.0597 76.306C39.6061 76.306 38.6989 76.1982 37.9349 75.3084V80H37.9111ZM38.293 70.9403C37.9827 71.2909 37.8156 71.7762 37.8156 72.2076C37.8156 72.666 38.0304 73.1513 38.293 73.421C38.5795 73.7445 38.9854 73.9333 39.3912 73.9333C39.821 73.9333 40.2029 73.7445 40.4655 73.421C40.7281 73.1244 40.943 72.666 40.943 72.2076C40.943 71.7762 40.7759 71.2639 40.4655 70.9403C40.1791 70.6168 39.7971 70.428 39.3912 70.428C38.9854 70.4011 38.5795 70.5898 38.293 70.9403Z" fill="#EF6C00"/>
<path id="XMLID_8_" d="M46.3384 73.3401C45.9325 73.2592 45.4551 72.9895 45.1447 72.666C44.8582 72.3424 44.6195 71.8301 44.6195 71.0212C44.6195 70.2393 44.8582 69.5652 45.2402 69.1338C45.7654 68.4867 46.5771 68.3249 47.5559 68.3249H51.1608V76.0364H48.7257V73.5827H48.5348L47.0307 76.0364H44.4524L46.3384 73.3401ZM48.7257 70.1045H47.9857C47.7469 70.1045 47.4366 70.1314 47.2217 70.3471C47.1262 70.455 47.0069 70.6707 47.0069 70.9943C47.0069 71.3178 47.1023 71.5335 47.2456 71.6414C47.4127 71.8032 47.6992 71.8571 47.9618 71.8571H48.7257V70.1045Z" fill="#EF6C00"/>
<path id="XMLID_6_" d="M52.832 68.3249H55.2671V70.9403H57.5351V68.3249H59.9702V76.0364H57.5351V73.0974H55.2671V76.0364H52.832V68.3249Z" fill="#EF6C00"/>
<path id="XMLID_4_" d="M64.1241 68.3249V72.2885L66.8218 68.3249H68.9466V76.0364H66.5115V71.9649L63.8377 76.0364H61.689V68.3249H64.1241V68.3249Z" fill="#EF6C00"/>
<path id="XMLID_2_" d="M73.5064 68.8102H77.3262V64.5231H79.9761V76.0364H77.3262V71.3717H73.5064V76.0364H70.8564V64.5231H73.5064V68.8102V68.8102Z" fill="#EF6C00"/>
</g>
</g>
<defs>
<clipPath id="clip0_2_74">
<rect width="80" height="80" fill="white"/>
</clipPath>
</defs>
</svg>
