<svg width="58" height="60" viewBox="0 0 58 60" fill="none" xmlns="http://www.w3.org/2000/svg">
<g id="logo3 1" clip-path="url(#clip0_2_42)">
<path id="Vector" d="M41.0725 12.6997C41.0206 12.6997 40.9687 12.6997 40.9168 12.6795L15.2313 2.93225L15.1621 3.17492L15.0409 2.95247L2.2847 12.2548C2.16354 12.3357 2.02507 12.3761 1.88661 12.3357C1.74814 12.2952 1.64429 12.1941 1.55776 12.0728C1.48853 11.9312 1.45391 11.7695 1.48853 11.6077C1.52314 11.4459 1.60968 11.3246 1.73084 11.2437L14.6428 1.82002C14.7293 1.75935 14.8159 1.73913 14.9024 1.71891L14.989 1.43579L15.1275 1.69868C15.214 1.67846 15.3005 1.67846 15.4043 1.71891L41.2457 11.5268C41.3841 11.5672 41.4879 11.6886 41.5398 11.8301C41.6091 11.9717 41.6091 12.1335 41.5745 12.2952C41.5052 12.5379 41.2976 12.6997 41.0725 12.6997Z" fill="#EF6C00"/>
<path id="Vector_2" d="M48.29 17.3913C48.394 17.3913 48.4632 17.4722 48.4632 17.5935V26.8958C48.4632 27.0172 48.394 27.0981 48.29 27.0981C48.1862 27.0981 48.117 27.0172 48.117 26.8958V17.5935C48.117 17.4722 48.1862 17.3913 48.29 17.3913Z" fill="#EF6C00"/>
<path id="Vector_3" d="M48.29 27.5025C47.9959 27.5025 47.7708 27.2397 47.7708 26.8959V17.5936C47.7708 17.2498 47.9959 16.9869 48.29 16.9869C48.5843 16.9869 48.8093 17.2498 48.8093 17.5936V26.8959C48.8093 27.2397 48.5843 27.5025 48.29 27.5025Z" fill="#EF6C00"/>
<path id="Vector_4" d="M14.937 23.7816L12.9812 21.4964L14.937 19.2113L16.8929 21.4964L14.937 23.7816ZM13.9678 21.4964L14.9543 22.6491L15.9409 21.4964L14.9543 20.3438L13.9678 21.4964Z" fill="#F9A825"/>
<path id="Vector_5" d="M14.937 27.2194L12.9812 24.9342L14.937 22.6491L16.8929 24.9342L14.937 27.2194ZM13.9678 24.9342L14.9543 26.0869L15.9409 24.9342L14.9543 23.7816L13.9678 24.9342Z" fill="#F9A825"/>
<path id="Vector_6" d="M15.0581 0.404419C15.439 0.404419 15.7505 0.768423 15.7505 1.21332C15.7505 1.65821 15.439 2.02221 15.0581 2.02221C14.6774 2.02221 14.3658 1.65821 14.3658 1.21332C14.3658 0.768423 14.6774 0.404419 15.0581 0.404419Z" fill="#F9A825"/>
<path id="Vector_7" d="M15.0581 2.42669C14.487 2.42669 14.0197 1.88069 14.0197 1.21335C14.0197 0.546006 14.487 0 15.0581 0C15.6293 0 16.0967 0.546006 16.0967 1.21335C16.0967 1.88069 15.6293 2.42669 15.0581 2.42669ZM15.0581 0.808898C14.8678 0.808898 14.712 0.9909 14.712 1.21335C14.712 1.43579 14.8678 1.6178 15.0581 1.6178C15.2486 1.6178 15.4044 1.43579 15.4044 1.21335C15.4044 0.9909 15.2486 0.808898 15.0581 0.808898Z" fill="#F9A825"/>
<path id="Vector_8" d="M15.0582 2.02222L17.1352 14.7624H12.9812L15.0582 2.02222Z" fill="#F9A825"/>
<path id="Vector_9" d="M17.5506 15.1668H12.5658L14.712 1.94135H15.4044L17.5506 15.1668ZM13.3966 14.3579H16.7198L15.0582 4.18604L13.3966 14.3579Z" fill="#F9A825"/>
<path id="Vector_10" d="M13.3273 28.9181C12.9466 28.9181 12.635 28.5541 12.635 28.1092V20.0202H11.9427C11.5619 20.0202 11.2504 19.6562 11.2504 19.2113C11.2504 18.7664 11.5619 18.4024 11.9427 18.4024H12.635V17.5935H11.9427C11.5619 17.5935 11.2504 17.2295 11.2504 16.7846C11.2504 16.3397 11.5619 15.9757 11.9427 15.9757H12.635V14.3579C12.635 13.913 12.9466 13.549 13.3273 13.549C13.7081 13.549 14.0197 13.913 14.0197 14.3579V15.9757H16.0967V14.3579C16.0967 13.913 16.4082 13.549 16.789 13.549C17.1698 13.549 17.4813 13.913 17.4813 14.3579V15.9757H18.1736C18.5545 15.9757 18.8661 16.3397 18.8661 16.7846C18.8661 17.2295 18.5545 17.5935 18.1736 17.5935H17.4813V18.4024H18.1736C18.5545 18.4024 18.8661 18.7664 18.8661 19.2113C18.8661 19.6562 18.5545 20.0202 18.1736 20.0202H17.4813V26.4914C17.4813 26.9363 17.1698 27.3003 16.789 27.3003C16.4082 27.3003 16.0967 26.9363 16.0967 26.4914V20.0202H14.0197V28.1092C14.0197 28.5541 13.7081 28.9181 13.3273 28.9181ZM13.3273 19.2113V28.1092V19.2113ZM13.3273 19.2113H16.789V26.4914V16.7846V19.2113H13.3273ZM11.9427 19.2113H13.3273H11.9427ZM14.0197 18.4024H16.0967V17.5935H14.0197V18.4024ZM11.9427 16.7846H13.3273H11.9427Z" fill="#F9A825"/>
<path id="Vector_11" d="M12.9812 16.3802H17.1352V19.4136H12.9812V16.3802Z" fill="#F9A825"/>
<path id="Vector_12" d="M55.3864 15.1668H3.46165C3.08087 15.1668 2.76933 14.8028 2.76933 14.3579C2.76933 13.913 3.08087 13.549 3.46165 13.549H55.3864C55.7672 13.549 56.0787 13.913 56.0787 14.3579C56.0787 14.8028 55.7672 15.1668 55.3864 15.1668ZM3.46165 14.3579H55.3864H3.46165ZM52.6171 12.7401H0.692331C0.311549 12.7401 0 12.3761 0 11.9312C0 11.4863 0.311549 11.1223 0.692331 11.1223H52.6171C52.9979 11.1223 53.3094 11.4863 53.3094 11.9312C53.3094 12.3761 52.9979 12.7401 52.6171 12.7401ZM0.692331 11.9312H52.6171H0.692331Z" fill="#F9A825"/>
<path id="Vector_13" d="M45.6939 15.5712H50.8863C50.9901 15.5712 51.0594 15.6521 51.0594 15.7735C51.0594 15.8948 50.9901 15.9757 50.8863 15.9757H45.6939C45.5899 15.9757 45.5207 15.8948 45.5207 15.7735C45.5207 15.6521 45.5899 15.5712 45.6939 15.5712ZM46.3862 16.3801H50.194C50.2978 16.3801 50.3671 16.461 50.3671 16.5824C50.3671 16.7037 50.2978 16.7846 50.194 16.7846H46.3862C46.2823 16.7846 46.213 16.7037 46.213 16.5824C46.213 16.461 46.2823 16.3801 46.3862 16.3801ZM47.0785 17.189H49.5016C49.6055 17.189 49.6747 17.2699 49.6747 17.3912C49.6747 17.5126 49.6055 17.5935 49.5016 17.5935H47.0785C46.9747 17.5935 46.9054 17.5126 46.9054 17.3912C46.9054 17.2699 46.9747 17.189 47.0785 17.189Z" fill="#FFC107"/>
<path id="Vector_14" d="M49.5016 17.998H47.0785C46.7843 17.998 46.5592 17.7351 46.5592 17.3913C46.5592 17.3104 46.5765 17.2497 46.5939 17.1891H46.3862C46.0919 17.1891 45.8669 16.9262 45.8669 16.5824C45.8669 16.5015 45.8842 16.4408 45.9015 16.3802H45.6939C45.3996 16.3802 45.1746 16.1173 45.1746 15.7735C45.1746 15.4297 45.3996 15.1668 45.6939 15.1668H50.8863C51.1806 15.1668 51.4056 15.4297 51.4056 15.7735C51.4056 16.1173 51.1806 16.3802 50.8863 16.3802H50.6787C50.696 16.4408 50.7133 16.5015 50.7133 16.5824C50.7133 16.9262 50.4882 17.1891 50.194 17.1891H49.9862C50.0036 17.2497 50.0209 17.3104 50.0209 17.3913C50.0209 17.7351 49.7959 17.998 49.5016 17.998Z" fill="#F9A825"/>
<path id="Vector_15" d="M21.2892 38.2204H28.2125V47.9272H21.2892V38.2204Z" fill="#F9A825"/>
<path id="Vector_16" d="M30.9818 38.2204H37.9051V47.9272H30.9818V38.2204Z" fill="#F9A825"/>
<path id="Vector_17" d="M53.5172 34.9848H46.9054C46.715 34.9848 46.5419 35.0657 46.4208 35.2275C46.2997 35.3691 46.2131 35.5713 46.2131 35.7937V47.1183C46.2131 47.5632 46.5246 47.9272 46.9054 47.9272C47.2861 47.9272 47.5977 47.5632 47.5977 47.1183V36.6026H57.2904C57.4288 36.6026 57.55 36.5217 57.6019 36.3802C57.7058 36.178 57.6365 35.9151 57.4634 35.7937L29.5971 17.1891L1.71353 35.7937C1.59236 35.8746 1.52313 36.0162 1.52313 36.1577C1.52313 36.4004 1.69621 36.5824 1.88661 36.5824H11.5965V47.0981C11.5965 47.543 11.9081 47.907 12.2889 47.907C12.6696 47.907 12.9812 47.543 12.9812 47.0981V35.7735C12.9812 35.5511 12.912 35.3488 12.7735 35.2073C12.6523 35.0657 12.4793 34.9646 12.2889 34.9646H5.67712L29.5971 18.8069L53.5172 34.9848Z" fill="#F9A825"/>
<path id="severyaninName" d="M6.3 53.5C6.3 52.9533 6.42 52.4767 6.66 52.07C6.90667 51.6567 7.22667 51.3333 7.62 51.1C8.01333 50.8667 8.44 50.75 8.9 50.75C9.23333 50.75 9.53667 50.7933 9.81 50.88C10.09 50.9667 10.3433 51.09 10.57 51.25C10.7967 51.4033 10.99 51.5833 11.15 51.79V50.67C10.8567 50.41 10.5367 50.2167 10.19 50.09C9.84333 49.9633 9.41333 49.9 8.9 49.9C8.41333 49.9 7.95667 49.99 7.53 50.17C7.11 50.3433 6.74 50.5933 6.42 50.92C6.1 51.24 5.85 51.62 5.67 52.06C5.49 52.5 5.4 52.98 5.4 53.5C5.4 54.02 5.49 54.5 5.67 54.94C5.85 55.38 6.1 55.7633 6.42 56.09C6.74 56.41 7.11 56.66 7.53 56.84C7.95667 57.0133 8.41333 57.1 8.9 57.1C9.41333 57.1 9.84333 57.0367 10.19 56.91C10.5367 56.7833 10.8567 56.59 11.15 56.33V55.21C10.99 55.4167 10.7967 55.6 10.57 55.76C10.3433 55.9133 10.09 56.0333 9.81 56.12C9.53667 56.2067 9.23333 56.25 8.9 56.25C8.44 56.25 8.01333 56.1333 7.62 55.9C7.22667 55.6667 6.90667 55.3433 6.66 54.93C6.42 54.5167 6.3 54.04 6.3 53.5ZM12.7057 54.9H16.6357C16.6424 54.86 16.6457 54.82 16.6457 54.78C16.6457 54.74 16.6457 54.7 16.6457 54.66C16.6457 54.1733 16.5557 53.7567 16.3757 53.41C16.1957 53.0567 15.9424 52.7833 15.6157 52.59C15.289 52.3967 14.909 52.3 14.4757 52.3C14.0824 52.3 13.7257 52.38 13.4057 52.54C13.0924 52.7 12.8357 52.9233 12.6357 53.21C12.4357 53.4967 12.3024 53.83 12.2357 54.21C12.2224 54.29 12.2124 54.37 12.2057 54.45C12.199 54.53 12.1957 54.6133 12.1957 54.7C12.1957 55.16 12.289 55.5733 12.4757 55.94C12.669 56.3 12.929 56.5833 13.2557 56.79C13.589 56.9967 13.9624 57.1 14.3757 57.1C14.7757 57.1 15.109 57.0533 15.3757 56.96C15.6424 56.86 15.869 56.7233 16.0557 56.55C16.2424 56.37 16.4124 56.1633 16.5657 55.93L15.9157 55.52C15.8157 55.6867 15.6957 55.8333 15.5557 55.96C15.4157 56.08 15.2557 56.1767 15.0757 56.25C14.9024 56.3167 14.7024 56.35 14.4757 56.35C14.1757 56.35 13.9157 56.2867 13.6957 56.16C13.4757 56.0333 13.3057 55.8467 13.1857 55.6C13.0657 55.3533 13.0057 55.0533 13.0057 54.7L13.0257 54.4C13.0257 54.1133 13.089 53.8667 13.2157 53.66C13.349 53.4467 13.5257 53.2833 13.7457 53.17C13.9657 53.0567 14.209 53 14.4757 53C14.7424 53 14.9657 53.0533 15.1457 53.16C15.3324 53.26 15.4757 53.4033 15.5757 53.59C15.6824 53.77 15.749 53.98 15.7757 54.22H12.7057V54.9ZM18.2122 54.6V55.02H19.5422C19.6955 55.02 19.8255 55.0367 19.9322 55.07C20.0455 55.0967 20.1355 55.14 20.2022 55.2C20.2755 55.26 20.3289 55.3267 20.3622 55.4C20.4022 55.4733 20.4222 55.5567 20.4222 55.65C20.4222 55.83 20.3489 55.9833 20.2022 56.11C20.0622 56.2367 19.8422 56.3 19.5422 56.3H18.2122V57H19.7422C20.2689 57 20.6455 56.88 20.8722 56.64C21.1055 56.3933 21.2222 56.0967 21.2222 55.75C21.2222 55.45 21.1489 55.2167 21.0022 55.05C20.8555 54.8833 20.6555 54.7667 20.4022 54.7C20.1489 54.6333 19.8622 54.6 19.5422 54.6H18.2122ZM18.2122 54.8H19.4422C19.7289 54.8 19.9889 54.76 20.2222 54.68C20.4622 54.5933 20.6555 54.4667 20.8022 54.3C20.9489 54.1267 21.0222 53.91 21.0222 53.65C21.0222 53.35 20.9489 53.11 20.8022 52.93C20.6555 52.7433 20.4622 52.61 20.2222 52.53C19.9889 52.4433 19.7289 52.4 19.4422 52.4H18.2122V53.1H19.4422C19.6822 53.1 19.8722 53.1567 20.0122 53.27C20.1522 53.3767 20.2222 53.52 20.2222 53.7C20.2222 53.7867 20.2022 53.87 20.1622 53.95C20.1289 54.0233 20.0789 54.09 20.0122 54.15C19.9455 54.21 19.8622 54.2567 19.7622 54.29C19.6689 54.3167 19.5622 54.33 19.4422 54.33H18.2122V54.8ZM17.7422 52.4V57H18.5422V52.4H17.7422ZM22.3834 54.9H26.3134C26.3201 54.86 26.3234 54.82 26.3234 54.78C26.3234 54.74 26.3234 54.7 26.3234 54.66C26.3234 54.1733 26.2334 53.7567 26.0534 53.41C25.8734 53.0567 25.6201 52.7833 25.2934 52.59C24.9668 52.3967 24.5868 52.3 24.1534 52.3C23.7601 52.3 23.4034 52.38 23.0834 52.54C22.7701 52.7 22.5134 52.9233 22.3134 53.21C22.1134 53.4967 21.9801 53.83 21.9134 54.21C21.9001 54.29 21.8901 54.37 21.8834 54.45C21.8768 54.53 21.8734 54.6133 21.8734 54.7C21.8734 55.16 21.9668 55.5733 22.1534 55.94C22.3468 56.3 22.6068 56.5833 22.9334 56.79C23.2668 56.9967 23.6401 57.1 24.0534 57.1C24.4534 57.1 24.7868 57.0533 25.0534 56.96C25.3201 56.86 25.5468 56.7233 25.7334 56.55C25.9201 56.37 26.0901 56.1633 26.2434 55.93L25.5934 55.52C25.4934 55.6867 25.3734 55.8333 25.2334 55.96C25.0934 56.08 24.9334 56.1767 24.7534 56.25C24.5801 56.3167 24.3801 56.35 24.1534 56.35C23.8534 56.35 23.5934 56.2867 23.3734 56.16C23.1534 56.0333 22.9834 55.8467 22.8634 55.6C22.7434 55.3533 22.6834 55.0533 22.6834 54.7L22.7034 54.4C22.7034 54.1133 22.7668 53.8667 22.8934 53.66C23.0268 53.4467 23.2034 53.2833 23.4234 53.17C23.6434 53.0567 23.8868 53 24.1534 53C24.4201 53 24.6434 53.0533 24.8234 53.16C25.0101 53.26 25.1534 53.4033 25.2534 53.59C25.3601 53.77 25.4268 53.98 25.4534 54.22H22.3834V54.9ZM28.1699 59.2V52.4H27.3699V59.2H28.1699ZM32.0199 54.7C32.0199 54.2 31.9166 53.7733 31.7099 53.42C31.5033 53.06 31.2266 52.7833 30.8799 52.59C30.5399 52.3967 30.1599 52.3 29.7399 52.3C29.3599 52.3 29.0233 52.3967 28.7299 52.59C28.4433 52.7833 28.2166 53.06 28.0499 53.42C27.8899 53.7733 27.8099 54.2 27.8099 54.7C27.8099 55.1933 27.8899 55.62 28.0499 55.98C28.2166 56.34 28.4433 56.6167 28.7299 56.81C29.0233 57.0033 29.3599 57.1 29.7399 57.1C30.1599 57.1 30.5399 57.0033 30.8799 56.81C31.2266 56.6167 31.5033 56.34 31.7099 55.98C31.9166 55.62 32.0199 55.1933 32.0199 54.7ZM31.2099 54.7C31.2099 55.0533 31.1366 55.3533 30.9899 55.6C30.8499 55.8467 30.6599 56.0333 30.4199 56.16C30.1866 56.2867 29.9266 56.35 29.6399 56.35C29.4066 56.35 29.1766 56.2867 28.9499 56.16C28.7233 56.0333 28.5366 55.8467 28.3899 55.6C28.2433 55.3533 28.1699 55.0533 28.1699 54.7C28.1699 54.3467 28.2433 54.0467 28.3899 53.8C28.5366 53.5533 28.7233 53.3667 28.9499 53.24C29.1766 53.1133 29.4066 53.05 29.6399 53.05C29.9266 53.05 30.1866 53.1133 30.4199 53.24C30.6599 53.3667 30.8499 53.5533 30.9899 53.8C31.1366 54.0467 31.2099 54.3467 31.2099 54.7ZM33.783 57L35.483 54.6H34.603L32.903 57H33.783ZM36.703 57V52.4H35.903V57H36.703ZM36.233 54.46H34.803C34.6097 54.46 34.4464 54.4367 34.313 54.39C34.1864 54.3367 34.0897 54.26 34.023 54.16C33.9564 54.06 33.923 53.9333 33.923 53.78C33.923 53.6267 33.9564 53.5 34.023 53.4C34.0897 53.3 34.1864 53.2267 34.313 53.18C34.4464 53.1267 34.6097 53.1 34.803 53.1H36.233V52.4H34.803C34.4897 52.4 34.203 52.4467 33.943 52.54C33.6897 52.6333 33.4897 52.78 33.343 52.98C33.1964 53.18 33.123 53.4467 33.123 53.78C33.123 54.1067 33.1964 54.3733 33.343 54.58C33.4897 54.78 33.6897 54.9267 33.943 55.02C34.203 55.1133 34.4897 55.16 34.803 55.16H36.233V54.46ZM38.427 54.95H41.827V54.2H38.427V54.95ZM41.307 52.4V57H42.107V52.4H41.307ZM37.957 52.4V57H38.757V52.4H37.957ZM47.4613 53.2L47.5113 52.05L43.7113 56.2L43.6613 57.35L47.4613 53.2ZM44.4613 52.4H43.6613V57.35L44.4613 56.25V52.4ZM47.5113 52.05L46.7113 53.15V57H47.5113V52.05ZM49.5805 53.6H54.3805V52.8H49.5805V53.6ZM53.8105 50V57H54.6605V50H53.8105ZM49.1105 50V57H49.9605V50H49.1105Z" fill="#EF6C00"/>
<mask id="mask0_2_42" style="mask-type:alpha" maskUnits="userSpaceOnUse" x="1" y="22" width="21" height="26">
<g id="mask0_9_2">
<path id="Vector_18" d="M1.55774 22.0425H21.2892V47.9272H1.55774V22.0425Z" fill="white"/>
</g>
</mask>
<g mask="url(#mask0_2_42)">
<g id="Group">
<path id="Vector_19" d="M53.5345 34.9848H46.9227C46.7323 34.9848 46.5592 35.0657 46.4381 35.2275C46.3169 35.3691 46.2304 35.5713 46.2304 35.7937V47.1183C46.2304 47.5632 46.5419 47.9272 46.9227 47.9272C47.3034 47.9272 47.615 47.5632 47.615 47.1183V36.6026H57.3077C57.4461 36.6026 57.5673 36.5217 57.6192 36.3802C57.7231 36.178 57.6538 35.9151 57.4807 35.7937L29.6144 17.1891L1.74813 35.7937C1.62697 35.8746 1.55774 36.0162 1.55774 36.1577C1.55774 36.4004 1.73082 36.5824 1.92122 36.5824H11.6138V47.0981C11.6138 47.543 11.9254 47.907 12.3062 47.907C12.6869 47.907 12.9985 47.543 12.9985 47.0981V35.7735C12.9985 35.5511 12.9293 35.3488 12.7908 35.2073C12.6696 35.0657 12.4966 34.9646 12.3062 34.9646H5.69441L29.6144 18.7867L53.5345 34.9848Z" fill="#EF6C00"/>
</g>
</g>
</g>
<defs>
<clipPath id="clip0_2_42">
<rect width="58" height="60" fill="white"/>
</clipPath>
</defs>
</svg>
