<svg version="1" id="Layer_1" xmlns="http://www.w3.org/2000/svg" viewBox="0 0 335.1 296.7" enable-background="new 0 0 335.1 296.7"><style>.st0{fill:#ef6c00}.st1{fill:#f9a825}.st2{fill:#ffc107}.st3{filter:url(#Adobe_OpacityMaskFilter)}.st4{fill:#fff}.st5{mask:url(#mask-2_2_);fill:#ef6c00}.st6{enable-background:new}</style><g id="Combined-Shape"><path id="XMLID_76_" class="st0" d="M237.3 62.8c-.3 0-.6 0-.9-.1L88 14.5l-.4 1.2-.7-1.1-73.7 46c-.7.4-1.5.6-2.3.4-.8-.2-1.4-.7-1.9-1.3-.4-.7-.6-1.5-.4-2.3s.7-1.4 1.4-1.8L84.6 9c.5-.3 1-.4 1.5-.5l.5-1.4.8 1.3c.5-.1 1-.1 1.6.1L238.3 57c.8.2 1.4.8 1.7 1.5.4.7.4 1.5.2 2.3-.4 1.2-1.6 2-2.9 2z"/></g><g id="Rectangle-8"><path id="XMLID_67_" class="st0" d="M279 86c.6 0 1 .4 1 1v46c0 .6-.4 1-1 1s-1-.4-1-1V87c0-.6.4-1 1-1z"/><path id="XMLID_74_" class="st0" d="M279 136c-1.7 0-3-1.3-3-3V87c0-1.7 1.3-3 3-3s3 1.3 3 3v46c0 1.7-1.3 3-3 3z"/></g><g id="Group-3" transform="translate(73 93)"><g id="Rectangle-7"><path id="XMLID_71_" class="st1" d="M13.3 24.6L2 13.3 13.3 2l11.3 11.3-11.3 11.3zM7.7 13.3l5.7 5.7 5.7-5.7-5.7-5.7-5.7 5.7z"/></g><g id="Rectangle-7_1_"><path id="XMLID_68_" class="st1" d="M13.3 41.6L2 30.3 13.3 19l11.3 11.3-11.3 11.3zM7.7 30.3l5.7 5.7 5.7-5.7-5.7-5.7-5.7 5.7z"/></g></g><g id="Rectangle-13"><path id="XMLID_34_" class="st1" d="M87 2c2.2 0 4 1.8 4 4s-1.8 4-4 4-4-1.8-4-4 1.8-4 4-4z"/><path id="XMLID_64_" class="st1" d="M87 12c-3.3 0-6-2.7-6-6s2.7-6 6-6 6 2.7 6 6-2.7 6-6 6zm0-8c-1.1 0-2 .9-2 2s.9 2 2 2 2-.9 2-2-.9-2-2-2z"/></g><g id="Triangle"><path id="XMLID_30_" class="st1" d="M87 10l12 63H75z"/><path id="XMLID_31_" class="st1" d="M101.4 75H72.6L85 9.6h4L101.4 75zm-24-4h19.2L87 20.7 77.4 71z"/></g><g id="Combined-Shape_1_"><path id="XMLID_47_" class="st1" d="M77 143c-2.2 0-4-1.8-4-4V99h-4c-2.2 0-4-1.8-4-4s1.8-4 4-4h4v-4h-4c-2.2 0-4-1.8-4-4s1.8-4 4-4h4v-8c0-2.2 1.8-4 4-4s4 1.8 4 4v8h12v-8c0-2.2 1.8-4 4-4s4 1.8 4 4v8h4c2.2 0 4 1.8 4 4s-1.8 4-4 4h-4v4h4c2.2 0 4 1.8 4 4s-1.8 4-4 4h-4v32c0 2.2-1.8 4-4 4s-4-1.8-4-4V99H81v40c0 2.2-1.8 4-4 4zm0-48v44-44zm0 0h20v36-48 12H77zm-8 0h8-8zm12-4h12v-4H81v4zm-12-8h8-8z"/></g><g id="Rectangle-10"><path id="XMLID_28_" class="st1" d="M75 81h24v15H75z"/></g><g id="Combined-Shape_2_"><path id="XMLID_53_" class="st1" d="M320 75H20c-2.2 0-4-1.8-4-4s1.8-4 4-4h300c2.2 0 4 1.8 4 4s-1.8 4-4 4zM20 71h300H20zm284-8H4c-2.2 0-4-1.8-4-4s1.8-4 4-4h300c2.2 0 4 1.8 4 4s-1.8 4-4 4zM4 59h300H4z"/></g><g id="Combined-Shape_3_"><path id="XMLID_48_" class="st2" d="M264 77h30c.6 0 1 .4 1 1s-.4 1-1 1h-30c-.6 0-1-.4-1-1s.4-1 1-1zm4 4h22c.6 0 1 .4 1 1s-.4 1-1 1h-22c-.6 0-1-.4-1-1s.4-1 1-1zm4 4h14c.6 0 1 .4 1 1s-.4 1-1 1h-14c-.6 0-1-.4-1-1s.4-1 1-1z"/><path id="XMLID_52_" class="st1" d="M286 89h-14c-1.7 0-3-1.3-3-3 0-.4.1-.7.2-1H268c-1.7 0-3-1.3-3-3 0-.4.1-.7.2-1H264c-1.7 0-3-1.3-3-3s1.3-3 3-3h30c1.7 0 3 1.3 3 3s-1.3 3-3 3h-1.2c.1.3.2.6.2 1 0 1.7-1.3 3-3 3h-1.2c.1.3.2.6.2 1 0 1.7-1.3 3-3 3z"/></g><path id="Rectangle-5" class="st1" d="M123 189h40v48h-40z"/><path id="Rectangle-5-Copy" class="st1" d="M179 189h40v48h-40z"/><path id="Combined-Shape_4_" class="st1" d="M309.2 173H271c-1.1 0-2.1.4-2.8 1.2-.7.7-1.2 1.7-1.2 2.8v56c0 2.2 1.8 4 4 4s4-1.8 4-4v-52h56c.8 0 1.5-.4 1.8-1.1.6-1 .2-2.3-.8-2.9L171 85 9.9 177c-.7.4-1.1 1.1-1.1 1.8 0 1.2 1 2.1 2.1 2.1H67v52c0 2.2 1.8 4 4 4s4-1.8 4-4v-56c0-1.1-.4-2.1-1.2-2.8-.7-.7-1.7-1.2-2.8-1.2H32.8L171 93l138.2 80z"/><g id="Group-4" transform="translate(1 24)"><defs><filter id="Adobe_OpacityMaskFilter" filterUnits="userSpaceOnUse" x="8" y="61" width="324.2" height="152"><feColorMatrix values="1 0 0 0 0 0 1 0 0 0 0 0 1 0 0 0 0 0 1 0"/></filter></defs><mask maskUnits="userSpaceOnUse" x="8" y="61" width="324.2" height="152" id="mask-2_2_"><g id="XMLID_27_" class="st3"><path id="path-1_2_" class="st4" d="M8 85h114v128H8z"/></g></mask><path id="Combined-Shape-Copy" class="st5" d="M308.3 149h-38.2c-1.1 0-2.1.4-2.8 1.2-.7.7-1.2 1.7-1.2 2.8v56c0 2.2 1.8 4 4 4s4-1.8 4-4v-52h56c.8 0 1.5-.4 1.8-1.1.6-1 .2-2.3-.8-2.9l-161-92-161 92c-.7.4-1.1 1.1-1.1 1.8 0 1.2 1 2.1 2.1 2.1h56v52c0 2.2 1.8 4 4 4s4-1.8 4-4v-56c0-1.1-.4-2.1-1.2-2.8-.7-.7-1.7-1.2-2.8-1.2H31.9l138.2-80L308.3 149z"/></g><g id="name" class="st6"><path id="XMLID_24_" class="st0" d="M36.1 280.8c-4.4 1.6-6.8 2.1-9.6 2.1-7.4 0-13-2.9-16.5-6.4-4.2-4.2-6.5-10-6.5-15.6 0-6.1 2.6-11.8 6.5-15.7 3.8-3.8 9.5-6.7 16.1-6.7 2 0 5.4.3 10 2.2V254c-3.6-4.4-7.8-4.7-9.7-4.7-3.2 0-5.6 1-7.7 2.8-2.6 2.4-3.7 5.8-3.7 8.8 0 2.9 1.2 6.2 3.5 8.3 1.9 1.7 4.8 2.9 7.9 2.9 1.7 0 5.8-.2 9.7-4.5v13.2z"/><path id="XMLID_21_" class="st0" d="M72.5 269.6H51.2c0 1.5.6 3.6 1.8 4.8.6.6 1.9 1.4 4.2 1.4.3 0 2-.1 3.3-.8.6-.4 1.3-1 1.8-1.9h9.8c-.4 1.6-1.3 3.8-3.5 5.9s-5.4 4-11.6 4c-3.8 0-8.3-.8-11.8-4.4-1.9-1.9-4.2-5.4-4.2-10.8 0-4.8 1.8-8.6 4.3-11.1 2.4-2.3 6.1-4.2 11.7-4.2 3.3 0 7.6.7 11 3.9 4 3.8 4.5 8.8 4.5 12v1.2zm-9.4-5.9c-.3-1.1-.9-2.3-1.7-3.1-1.3-1.3-3.2-1.5-4.2-1.5-1.7 0-3.1.4-4.2 1.5-.7.8-1.3 1.8-1.5 3.1h11.6z"/><path id="XMLID_17_" class="st0" d="M96 253.4c2 0 5.3.2 7.3 2 1.3 1.2 2 3.1 2 5 0 1.4-.4 3.1-1.2 4.3-.7 1-1.9 1.9-3.1 2.4v.1c.6.1 2.5.5 4.1 2 1.5 1.4 2 2.9 2 4.9 0 2.2-.8 4.3-2 5.5-1.5 1.5-4.1 2.4-7 2.4H78.4v-28.6H96zm-3.5 11.4c1.7 0 2.3-.4 2.6-.6.5-.4.8-1.4.8-2 0-.7-.3-1.4-.7-1.8-.7-.6-1.9-.7-2.8-.7h-3.8v5.2h3.9zm.7 11c.6 0 1.7-.1 2.5-.8.4-.4.8-1 .8-2 0-1.1-.4-1.7-.8-2.1-.8-.8-1.7-.7-2.6-.7h-4.5v5.7h4.6z"/><path id="XMLID_14_" class="st0" d="M142.6 269.6h-21.3c0 1.5.6 3.6 1.8 4.8.6.6 1.9 1.4 4.2 1.4.3 0 2-.1 3.3-.8.6-.4 1.3-1 1.8-1.9h9.8c-.4 1.6-1.3 3.8-3.5 5.9s-5.4 4-11.6 4c-3.8 0-8.3-.8-11.8-4.4-1.9-1.9-4.2-5.4-4.2-10.8 0-4.8 1.8-8.6 4.3-11.1 2.4-2.3 6.1-4.2 11.7-4.2 3.3 0 7.6.7 11 3.9 4 3.8 4.5 8.8 4.5 12v1.2zm-9.4-5.9c-.3-1.1-.9-2.3-1.7-3.1-1.3-1.3-3.2-1.5-4.2-1.5-1.7 0-3.1.4-4.2 1.5-.7.8-1.3 1.8-1.5 3.1h11.6z"/><path id="XMLID_11_" class="st0" d="M158.8 296.7h-10.2v-43.3h10.2v3.1c1.8-2.2 4.5-4.1 8.8-4.1 4.4 0 7.9 1.9 10.2 4.2 2.4 2.4 4.4 6.1 4.4 11.1 0 4.8-1.9 8.6-4.6 11.3-3.2 3.1-6.9 4-9.8 4-1.9 0-5.7-.4-8.9-3.7v17.4zm1.6-33.6c-1.3 1.3-2 3.1-2 4.7 0 1.7.9 3.5 2 4.5 1.2 1.2 2.9 1.9 4.6 1.9 1.8 0 3.4-.7 4.5-1.9 1.1-1.1 2-2.8 2-4.5 0-1.6-.7-3.5-2-4.7-1.2-1.2-2.8-1.9-4.5-1.9-1.7-.1-3.4.6-4.6 1.9z"/><path id="XMLID_8_" class="st0" d="M194.1 272c-1.7-.3-3.7-1.3-5-2.5-1.2-1.2-2.2-3.1-2.2-6.1 0-2.9 1-5.4 2.6-7 2.2-2.4 5.6-3 9.7-3h15.1V282h-10.2v-9.1h-.8L197 282h-10.8l7.9-10zm10-12H201c-1 0-2.3.1-3.2.9-.4.4-.9 1.2-.9 2.4s.4 2 1 2.4c.7.6 1.9.8 3 .8h3.2V260z"/><path id="XMLID_6_" class="st0" d="M221.3 253.4h10.2v9.7h9.5v-9.7h10.2V282H241v-10.9h-9.5V282h-10.2v-28.6z"/><path id="XMLID_4_" class="st0" d="M268.6 253.4v14.7l11.3-14.7h8.9V282h-10.2v-15.1L267.4 282h-9v-28.6h10.2z"/><path id="XMLID_2_" class="st0" d="M307.9 255.2h16v-15.9H335V282h-11.1v-17.3h-16V282h-11.1v-42.7h11.1v15.9z"/></g></svg>