<svg width="60" height="60" viewBox="0 0 60 60" fill="none" xmlns="http://www.w3.org/2000/svg">
<path d="M42.4888 12.6997C42.4351 12.6997 42.3814 12.6997 42.3277 12.6795L15.7565 2.93225L15.6849 3.17492L15.5595 2.95247L2.36347 12.2548C2.23813 12.3357 2.09489 12.3761 1.95165 12.3357C1.80841 12.2952 1.70098 12.1941 1.61146 12.0728C1.53984 11.9312 1.50403 11.7695 1.53984 11.6077C1.57565 11.4459 1.66517 11.3246 1.79051 11.2437L15.1477 1.82002C15.2372 1.75935 15.3268 1.73913 15.4163 1.71891L15.5058 1.43579L15.6491 1.69868C15.7386 1.67846 15.8281 1.67846 15.9355 1.71891L42.6679 11.5268C42.8111 11.5672 42.9185 11.6886 42.9722 11.8301C43.0439 11.9717 43.0439 12.1335 43.0081 12.2952C42.9364 12.5379 42.7216 12.6997 42.4888 12.6997Z" fill="#EF6C00"/>
<path d="M49.9552 17.3913C50.0627 17.3913 50.1343 17.4722 50.1343 17.5935V26.8958C50.1343 27.0172 50.0627 27.0981 49.9552 27.0981C49.8478 27.0981 49.7762 27.0172 49.7762 26.8958V17.5935C49.7762 17.4722 49.8478 17.3913 49.9552 17.3913Z" fill="#EF6C00"/>
<path d="M49.9552 27.5025C49.6509 27.5025 49.4181 27.2397 49.4181 26.8959V17.5936C49.4181 17.2498 49.6509 16.9869 49.9552 16.9869C50.2596 16.9869 50.4924 17.2498 50.4924 17.5936V26.8959C50.4924 27.2397 50.2596 27.5025 49.9552 27.5025Z" fill="#EF6C00"/>
<path d="M15.4521 23.7816L13.4288 21.4964L15.4521 19.2113L17.4754 21.4964L15.4521 23.7816ZM14.4494 21.4964L15.47 22.6491L16.4906 21.4964L15.47 20.3438L14.4494 21.4964Z" fill="#F9A825"/>
<path d="M15.4521 27.2194L13.4288 24.9342L15.4521 22.6491L17.4754 24.9342L15.4521 27.2194ZM14.4494 24.9342L15.47 26.0869L16.4906 24.9342L15.47 23.7816L14.4494 24.9342Z" fill="#F9A825"/>
<path d="M15.5774 0.404419C15.9714 0.404419 16.2936 0.768423 16.2936 1.21332C16.2936 1.65821 15.9714 2.02221 15.5774 2.02221C15.1835 2.02221 14.8612 1.65821 14.8612 1.21332C14.8612 0.768423 15.1835 0.404419 15.5774 0.404419Z" fill="#F9A825"/>
<path d="M15.5774 2.42669C14.9866 2.42669 14.5031 1.88069 14.5031 1.21335C14.5031 0.546006 14.9866 0 15.5774 0C16.1683 0 16.6518 0.546006 16.6518 1.21335C16.6518 1.88069 16.1683 2.42669 15.5774 2.42669ZM15.5774 0.808898C15.3805 0.808898 15.2193 0.9909 15.2193 1.21335C15.2193 1.43579 15.3805 1.6178 15.5774 1.6178C15.7744 1.6178 15.9356 1.43579 15.9356 1.21335C15.9356 0.9909 15.7744 0.808898 15.5774 0.808898Z" fill="#F9A825"/>
<path d="M15.5774 2.02222L17.7261 14.7624H13.4288L15.5774 2.02222Z" fill="#F9A825"/>
<path d="M18.1558 15.1668H12.9991L15.2193 1.94135H15.9356L18.1558 15.1668ZM13.8586 14.3579H17.2963L15.5775 4.18604L13.8586 14.3579Z" fill="#F9A825"/>
<path d="M13.7869 28.9181C13.393 28.9181 13.0707 28.5541 13.0707 28.1092V20.0202H12.3545C11.9606 20.0202 11.6383 19.6562 11.6383 19.2113C11.6383 18.7664 11.9606 18.4024 12.3545 18.4024H13.0707V17.5935H12.3545C11.9606 17.5935 11.6383 17.2295 11.6383 16.7846C11.6383 16.3397 11.9606 15.9757 12.3545 15.9757H13.0707V14.3579C13.0707 13.913 13.393 13.549 13.7869 13.549C14.1808 13.549 14.5031 13.913 14.5031 14.3579V15.9757H16.6517V14.3579C16.6517 13.913 16.974 13.549 17.3679 13.549C17.7619 13.549 18.0841 13.913 18.0841 14.3579V15.9757H18.8003C19.1943 15.9757 19.5166 16.3397 19.5166 16.7846C19.5166 17.2295 19.1943 17.5935 18.8003 17.5935H18.0841V18.4024H18.8003C19.1943 18.4024 19.5166 18.7664 19.5166 19.2113C19.5166 19.6562 19.1943 20.0202 18.8003 20.0202H18.0841V26.4914C18.0841 26.9363 17.7619 27.3003 17.3679 27.3003C16.974 27.3003 16.6517 26.9363 16.6517 26.4914V20.0202H14.5031V28.1092C14.5031 28.5541 14.1808 28.9181 13.7869 28.9181ZM13.7869 19.2113V28.1092V19.2113ZM13.7869 19.2113H17.3679V26.4914V16.7846V19.2113H13.7869ZM12.3545 19.2113H13.7869H12.3545ZM14.5031 18.4024H16.6517V17.5935H14.5031V18.4024ZM12.3545 16.7846H13.7869H12.3545Z" fill="#F9A825"/>
<path d="M13.4288 16.3802H17.7261V19.4136H13.4288V16.3802Z" fill="#F9A825"/>
<path d="M57.2963 15.1668H3.58102C3.18711 15.1668 2.86482 14.8028 2.86482 14.3579C2.86482 13.913 3.18711 13.549 3.58102 13.549H57.2963C57.6902 13.549 58.0125 13.913 58.0125 14.3579C58.0125 14.8028 57.6902 15.1668 57.2963 15.1668ZM3.58102 14.3579H57.2963H3.58102ZM54.4315 12.7401H0.716204C0.322292 12.7401 0 12.3761 0 11.9312C0 11.4863 0.322292 11.1223 0.716204 11.1223H54.4315C54.8254 11.1223 55.1477 11.4863 55.1477 11.9312C55.1477 12.3761 54.8254 12.7401 54.4315 12.7401ZM0.716204 11.9312H54.4315H0.716204Z" fill="#F9A825"/>
<path d="M47.2695 15.5712H52.641C52.7484 15.5712 52.8201 15.6521 52.8201 15.7735C52.8201 15.8948 52.7484 15.9757 52.641 15.9757H47.2695C47.162 15.9757 47.0904 15.8948 47.0904 15.7735C47.0904 15.6521 47.162 15.5712 47.2695 15.5712ZM47.9857 16.3801H51.9248C52.0322 16.3801 52.1039 16.461 52.1039 16.5824C52.1039 16.7037 52.0322 16.7846 51.9248 16.7846H47.9857C47.8782 16.7846 47.8066 16.7037 47.8066 16.5824C47.8066 16.461 47.8782 16.3801 47.9857 16.3801ZM48.7019 17.189H51.2086C51.316 17.189 51.3876 17.2699 51.3876 17.3912C51.3876 17.5126 51.316 17.5935 51.2086 17.5935H48.7019C48.5945 17.5935 48.5228 17.5126 48.5228 17.3912C48.5228 17.2699 48.5945 17.189 48.7019 17.189Z" fill="#FFC107"/>
<path d="M51.2086 17.998H48.7019C48.3975 17.998 48.1647 17.7351 48.1647 17.3913C48.1647 17.3104 48.1826 17.2497 48.2006 17.1891H47.9857C47.6813 17.1891 47.4485 16.9262 47.4485 16.5824C47.4485 16.5015 47.4664 16.4408 47.4843 16.3802H47.2695C46.9651 16.3802 46.7323 16.1173 46.7323 15.7735C46.7323 15.4297 46.9651 15.1668 47.2695 15.1668H52.641C52.9454 15.1668 53.1782 15.4297 53.1782 15.7735C53.1782 16.1173 52.9454 16.3802 52.641 16.3802H52.4262C52.4441 16.4408 52.462 16.5015 52.462 16.5824C52.462 16.9262 52.2292 17.1891 51.9248 17.1891H51.7099C51.7279 17.2497 51.7458 17.3104 51.7458 17.3913C51.7458 17.7351 51.513 17.998 51.2086 17.998Z" fill="#F9A825"/>
<path d="M22.0233 38.2204H29.1853V47.9272H22.0233V38.2204Z" fill="#F9A825"/>
<path d="M32.0501 38.2204H39.2122V47.9272H32.0501V38.2204Z" fill="#F9A825"/>
<path d="M55.3626 34.9848H48.5228C48.3259 34.9848 48.1468 35.0657 48.0215 35.2275C47.8962 35.3691 47.8066 35.5713 47.8066 35.7937V47.1183C47.8066 47.5632 48.1289 47.9272 48.5228 47.9272C48.9167 47.9272 49.239 47.5632 49.239 47.1183V36.6026H59.2659C59.4091 36.6026 59.5345 36.5217 59.5882 36.3802C59.6956 36.178 59.624 35.9151 59.4449 35.7937L30.6177 17.1891L1.77261 35.7937C1.64727 35.8746 1.57565 36.0162 1.57565 36.1577C1.57565 36.4004 1.7547 36.5824 1.95166 36.5824H11.9964V47.0981C11.9964 47.543 12.3187 47.907 12.7126 47.907C13.1065 47.907 13.4288 47.543 13.4288 47.0981V35.7735C13.4288 35.5511 13.3572 35.3488 13.214 35.2073C13.0886 35.0657 12.9096 34.9646 12.7126 34.9646H5.87288L30.6177 18.8069L55.3626 34.9848Z" fill="#F9A825"/>
<mask id="mask0_9_2" style="mask-type:alpha" maskUnits="userSpaceOnUse" x="1" y="22" width="22" height="26">
<path d="M1.61145 22.0425H22.0233V47.9272H1.61145V22.0425Z" fill="white"/>
</mask>
<g mask="url(#mask0_9_2)">
<path d="M55.3805 34.9848H48.5407C48.3438 34.9848 48.1647 35.0657 48.0394 35.2275C47.914 35.3691 47.8245 35.5713 47.8245 35.7937V47.1183C47.8245 47.5632 48.1468 47.9272 48.5407 47.9272C48.9346 47.9272 49.2569 47.5632 49.2569 47.1183V36.6026H59.2838C59.427 36.6026 59.5524 36.5217 59.6061 36.3802C59.7135 36.178 59.6419 35.9151 59.4628 35.7937L30.6356 17.1891L1.80841 35.7937C1.68307 35.8746 1.61145 36.0162 1.61145 36.1577C1.61145 36.4004 1.7905 36.5824 1.98746 36.5824H12.0143V47.0981C12.0143 47.543 12.3366 47.907 12.7305 47.907C13.1244 47.907 13.4467 47.543 13.4467 47.0981V35.7735C13.4467 35.5511 13.3751 35.3488 13.2319 35.2073C13.1065 35.0657 12.9275 34.9646 12.7305 34.9646H5.89077L30.6356 18.7867L55.3805 34.9848Z" fill="#EF6C00"/>
</g>
<path d="M6.46374 56.7846C5.67592 57.1082 5.24619 57.2093 4.74485 57.2093C3.41987 57.2093 2.41719 56.6228 1.79051 55.9151C1.0385 55.0657 0.626678 53.8928 0.626678 52.7604C0.626678 51.5268 1.09221 50.3741 1.79051 49.5854C2.4709 48.817 3.49149 48.2305 4.67323 48.2305C5.03133 48.2305 5.64011 48.2912 6.46374 48.6754V51.365C5.81916 50.4752 5.06714 50.4146 4.72695 50.4146C4.15398 50.4146 3.72426 50.6168 3.34825 50.9808C2.88272 51.4661 2.68577 52.1537 2.68577 52.7604C2.68577 53.3468 2.90063 54.0142 3.31244 54.4388C3.65264 54.7826 4.17189 55.0253 4.72695 55.0253C5.03133 55.0253 5.76544 54.9848 6.46374 54.1153V56.7846Z" fill="#EF6C00"/>
<path d="M12.9812 54.5197H9.16742C9.16742 54.823 9.27485 55.2477 9.48971 55.4904C9.59714 55.6117 9.8299 55.7735 10.2417 55.7735C10.2954 55.7735 10.5998 55.7533 10.8326 55.6117C10.94 55.5308 11.0654 55.4095 11.1549 55.2275H12.9096C12.838 55.551 12.6768 55.9959 12.2829 56.4206C11.889 56.8453 11.316 57.2295 10.2059 57.2295C9.52552 57.2295 8.71979 57.0677 8.09311 56.3397C7.75291 55.9555 7.34109 55.2477 7.34109 54.1557C7.34109 53.185 7.66339 52.4166 8.11101 51.911C8.54074 51.4459 9.20323 51.0616 10.2059 51.0616C10.7968 51.0616 11.5667 51.2032 12.1755 51.8503C12.8917 52.6188 12.9812 53.6299 12.9812 54.277V54.5197ZM11.2981 53.3266C11.2444 53.1041 11.137 52.8614 10.9937 52.6997C10.761 52.4368 10.4208 52.3963 10.2417 52.3963C9.93734 52.3963 9.68666 52.4772 9.48971 52.6997C9.36437 52.8614 9.25694 53.0637 9.22113 53.3266H11.2981Z" fill="#EF6C00"/>
<path d="M17.1889 51.2437C17.547 51.2437 18.1379 51.2841 18.496 51.6481C18.7287 51.8908 18.8541 52.275 18.8541 52.6592C18.8541 52.9423 18.7824 53.2861 18.6392 53.5288C18.5139 53.731 18.299 53.913 18.0842 54.0141V54.0344C18.1916 54.0546 18.5318 54.1355 18.8183 54.4388C19.0868 54.7219 19.1764 55.0253 19.1764 55.4297C19.1764 55.8746 19.0331 56.2993 18.8183 56.5419C18.5497 56.8453 18.0842 57.0273 17.5649 57.0273H14.0376V51.2437H17.1889ZM16.5622 53.549C16.8666 53.549 16.974 53.4681 17.0277 53.4277C17.1173 53.3468 17.171 53.1446 17.171 53.0232C17.171 52.8817 17.1173 52.7401 17.0457 52.6592C16.9203 52.5379 16.7055 52.5177 16.5443 52.5177H15.8639V53.5692H16.5622V53.549ZM16.6876 55.7735C16.795 55.7735 16.9919 55.7533 17.1352 55.6117C17.2068 55.5308 17.2784 55.4095 17.2784 55.2073C17.2784 54.9848 17.2068 54.8635 17.1352 54.7826C16.9919 54.6208 16.8308 54.641 16.6696 54.641H15.8639V55.7937H16.6876V55.7735Z" fill="#EF6C00"/>
<path d="M25.5327 54.5197H21.7189C21.7189 54.823 21.8263 55.2477 22.0412 55.4904C22.1486 55.6117 22.3814 55.7735 22.7932 55.7735C22.8469 55.7735 23.1513 55.7533 23.3841 55.6117C23.4915 55.5308 23.6168 55.4095 23.7064 55.2275H25.4611C25.3894 55.551 25.2283 55.9959 24.8344 56.4206C24.4405 56.8453 23.8675 57.2295 22.7574 57.2295C22.077 57.2295 21.2713 57.0677 20.6446 56.3397C20.3044 55.9555 19.8926 55.2477 19.8926 54.1557C19.8926 53.185 20.2149 52.4166 20.6625 51.911C21.0922 51.4459 21.7547 51.0616 22.7574 51.0616C23.3483 51.0616 24.1182 51.2032 24.727 51.8503C25.4432 52.6188 25.5327 53.6299 25.5327 54.277V54.5197ZM23.8496 53.3266C23.7959 53.1041 23.6885 52.8614 23.5452 52.6997C23.3125 52.4368 22.9723 52.3963 22.7932 52.3963C22.4888 52.3963 22.2381 52.4772 22.0412 52.6997C21.9159 52.8614 21.8084 53.0637 21.7726 53.3266H23.8496Z" fill="#EF6C00"/>
<path d="M28.4333 60H26.607V51.2437H28.4333V51.8706C28.7556 51.4257 29.239 51.0414 30.009 51.0414C30.7968 51.0414 31.4235 51.4257 31.8353 51.8908C32.265 52.3761 32.6231 53.1244 32.6231 54.1355C32.6231 55.1062 32.2829 55.8746 31.7995 56.4206C31.2265 57.0475 30.564 57.2295 30.0448 57.2295C29.7046 57.2295 29.0242 57.1486 28.4512 56.4813V60H28.4333ZM28.7198 53.2052C28.487 53.4681 28.3617 53.8321 28.3617 54.1557C28.3617 54.4995 28.5228 54.8635 28.7198 55.0657C28.9347 55.3084 29.239 55.4499 29.5434 55.4499C29.8657 55.4499 30.1522 55.3084 30.3492 55.0657C30.5461 54.8433 30.7073 54.4995 30.7073 54.1557C30.7073 53.8321 30.5819 53.4479 30.3492 53.2052C30.1343 52.9626 29.8478 52.821 29.5434 52.821C29.239 52.8008 28.9347 52.9424 28.7198 53.2052Z" fill="#EF6C00"/>
<path d="M34.7538 55.005C34.4494 54.9444 34.0913 54.7421 33.8585 54.4995C33.6437 54.2568 33.4646 53.8726 33.4646 53.2659C33.4646 52.6794 33.6437 52.1739 33.9302 51.8503C34.3241 51.365 34.9328 51.2437 35.667 51.2437H38.3706V57.0273H36.5443V55.187H36.4011L35.273 57.0273H33.3393L34.7538 55.005ZM36.5443 52.5783H35.9893C35.8102 52.5783 35.5774 52.5986 35.4163 52.7603C35.3447 52.8412 35.2551 53.003 35.2551 53.2457C35.2551 53.4883 35.3268 53.6501 35.4342 53.731C35.5595 53.8524 35.7744 53.8928 35.9713 53.8928H36.5443V52.5783Z" fill="#EF6C00"/>
<path d="M39.624 51.2437H41.4503V53.2052H43.1513V51.2437H44.9776V57.0273H43.1513V54.823H41.4503V57.0273H39.624V51.2437Z" fill="#EF6C00"/>
<path d="M48.0931 51.2437V54.2164L50.1164 51.2437H51.7099V57.0273H49.8836V53.9737L47.8782 57.0273H46.2668V51.2437H48.0931Z" fill="#EF6C00"/>
<path d="M55.1298 51.6077H57.9946V48.3923H59.9821V57.0273H57.9946V53.5288H55.1298V57.0273H53.1423V48.3923H55.1298V51.6077Z" fill="#EF6C00"/>
</svg>
