<svg width="56" height="56" viewBox="0 0 56 56" fill="none" xmlns="http://www.w3.org/2000/svg">
<g id="Group">
<path id="Vector" d="M17.885 37.524C17.494 37.133 16.862 37.133 16.471 37.524L12.935 41.059L9.4 37.524C9.009 37.133 8.377 37.133 7.986 37.524C7.595 37.915 7.595 38.547 7.986 38.938L11.522 42.473L7.986 46.008C7.595 46.399 7.595 47.031 7.986 47.422C8.181 47.617 8.437 47.715 8.693 47.715C8.949 47.715 9.205 47.617 9.4 47.422L12.936 43.887L16.472 47.422C16.667 47.617 16.923 47.715 17.179 47.715C17.435 47.715 17.691 47.617 17.886 47.422C18.277 47.031 18.277 46.399 17.886 46.008L14.35 42.473L17.886 38.938C18.276 38.547 18.276 37.914 17.885 37.524Z" fill="white"/>
<path id="Vector_2" d="M55.362 41.377C53.354 37.581 46.381 33.465 46.075 33.285C44.797 32.557 43.473 32.332 42.354 32.639C41.51 32.873 40.822 33.407 40.358 34.185C39.338 35.405 38.073 36.831 37.766 37.052C35.398 38.655 33.516 38.466 31.472 36.423L19.985 24.937C17.94 22.892 17.752 21.009 19.354 18.646C19.578 18.336 21.003 17.071 22.224 16.05C23.002 15.587 23.536 14.9 23.769 14.055C24.076 12.949 23.84 11.592 23.117 10.323C22.944 10.027 18.827 3.054 15.032 1.047C13.107 0.0289999 10.777 0.377 9.236 1.919L6.699 4.455C2.685 8.468 1.232 13.017 2.378 17.975C3.256 21.77 5.697 25.791 9.604 29.938C4.08 31.437 0 36.481 0 42.473C0 49.641 5.832 55.473 13 55.473C18.98 55.473 24.016 51.409 25.526 45.902C30.008 50.347 34.351 53.086 38.434 54.03C39.529 54.283 40.603 54.41 41.657 54.41C45.374 54.409 48.826 52.836 51.953 49.709L54.49 47.172C56.031 45.632 56.382 43.303 55.362 41.377ZM13 53.473C6.935 53.473 2 48.538 2 42.473C2 36.851 6.241 32.209 11.691 31.558L11.711 31.556C11.859 31.538 11.994 31.529 12.133 31.517C12.42 31.495 12.707 31.473 12.999 31.473H13C19.065 31.473 24 36.408 24 42.473C24 42.769 23.979 43.06 23.956 43.351C23.944 43.487 23.935 43.618 23.918 43.763C23.276 49.221 18.628 53.473 13 53.473ZM53.076 45.758L50.539 48.295C46.997 51.838 43.185 53.072 38.884 52.082C35.122 51.212 31.05 48.605 26.779 44.334L25.953 43.509C25.985 43.144 26 42.802 26 42.473C26 35.305 20.168 29.473 13 29.473C12.999 29.473 12.997 29.473 12.996 29.473C12.667 29.473 12.326 29.489 11.965 29.52C7.759 25.289 5.189 21.253 4.327 17.524C3.332 13.224 4.571 9.412 8.113 5.87L10.65 3.333C11.567 2.418 12.952 2.209 14.096 2.814C17.389 4.557 21.351 11.267 21.385 11.324C21.834 12.112 22.005 12.933 21.842 13.521C21.742 13.881 21.519 14.154 21.159 14.356L21.008 14.46C20.155 15.172 18.125 16.894 17.7 17.522C17.088 18.426 16.682 19.315 16.469 20.188C15.758 18.77 15.183 17.127 14.994 15.307C14.937 14.758 14.448 14.368 13.896 14.415C13.347 14.473 12.947 14.964 13.004 15.514C13.726 22.467 19.133 26.993 19.363 27.182C19.389 27.203 19.419 27.211 19.446 27.229L30.056 37.839C30.1 37.883 30.145 37.922 30.19 37.965C30.226 38.017 30.249 38.076 30.296 38.122C30.485 38.309 35 42.689 41.895 43.405C41.93 43.408 41.965 43.41 41.999 43.41C42.505 43.41 42.939 43.027 42.993 42.514C43.05 41.964 42.651 41.473 42.101 41.415C39.987 41.196 38.114 40.576 36.553 39.857C37.319 39.627 38.097 39.245 38.886 38.71C39.514 38.285 41.237 36.255 41.948 35.402L42.052 35.251C42.254 34.892 42.527 34.668 42.887 34.568C43.475 34.404 44.296 34.576 45.073 35.018C45.141 35.058 51.851 39.02 53.594 42.314C54.201 43.457 53.993 44.842 53.076 45.758Z" fill="white"/>
</g>
</svg>
