<svg width="50" height="11" viewBox="0 0 50 11" fill="none" xmlns="http://www.w3.org/2000/svg">
<path id="severyaninName" d="M1.3 4.5C1.3 3.95333 1.42 3.47667 1.66 3.07C1.90667 2.65667 2.22667 2.33333 2.62 2.1C3.01333 1.86667 3.44 1.75 3.9 1.75C4.23333 1.75 4.53667 1.79333 4.81 1.88C5.09 1.96667 5.34333 2.09 5.57 2.25C5.79667 2.40333 5.99 2.58333 6.15 2.79V1.67C5.85667 1.41 5.53667 1.21667 5.19 1.09C4.84333 0.963333 4.41333 0.9 3.9 0.9C3.41333 0.9 2.95667 0.99 2.53 1.17C2.11 1.34333 1.74 1.59333 1.42 1.92C1.1 2.24 0.85 2.62 0.67 3.06C0.49 3.5 0.4 3.98 0.4 4.5C0.4 5.02 0.49 5.5 0.67 5.94C0.85 6.38 1.1 6.76333 1.42 7.09C1.74 7.41 2.11 7.66 2.53 7.84C2.95667 8.01333 3.41333 8.1 3.9 8.1C4.41333 8.1 4.84333 8.03667 5.19 7.91C5.53667 7.78333 5.85667 7.59 6.15 7.33V6.21C5.99 6.41667 5.79667 6.6 5.57 6.76C5.34333 6.91333 5.09 7.03333 4.81 7.12C4.53667 7.20667 4.23333 7.25 3.9 7.25C3.44 7.25 3.01333 7.13333 2.62 6.9C2.22667 6.66667 1.90667 6.34333 1.66 5.93C1.42 5.51667 1.3 5.04 1.3 4.5ZM7.7057 5.9H11.6357C11.6424 5.86 11.6457 5.82 11.6457 5.78C11.6457 5.74 11.6457 5.7 11.6457 5.66C11.6457 5.17333 11.5557 4.75667 11.3757 4.41C11.1957 4.05667 10.9424 3.78333 10.6157 3.59C10.289 3.39667 9.90904 3.3 9.4757 3.3C9.08237 3.3 8.7257 3.38 8.4057 3.54C8.09237 3.7 7.8357 3.92333 7.6357 4.21C7.4357 4.49667 7.30237 4.83 7.2357 5.21C7.22237 5.29 7.21237 5.37 7.2057 5.45C7.19904 5.53 7.1957 5.61333 7.1957 5.7C7.1957 6.16 7.28904 6.57333 7.4757 6.94C7.66904 7.3 7.92904 7.58333 8.2557 7.79C8.58904 7.99667 8.96237 8.1 9.3757 8.1C9.7757 8.1 10.109 8.05333 10.3757 7.96C10.6424 7.86 10.869 7.72333 11.0557 7.55C11.2424 7.37 11.4124 7.16333 11.5657 6.93L10.9157 6.52C10.8157 6.68667 10.6957 6.83333 10.5557 6.96C10.4157 7.08 10.2557 7.17667 10.0757 7.25C9.90237 7.31667 9.70237 7.35 9.4757 7.35C9.1757 7.35 8.9157 7.28667 8.6957 7.16C8.4757 7.03333 8.3057 6.84667 8.1857 6.6C8.0657 6.35333 8.0057 6.05333 8.0057 5.7L8.0257 5.4C8.0257 5.11333 8.08904 4.86667 8.2157 4.66C8.34904 4.44667 8.5257 4.28333 8.7457 4.17C8.9657 4.05667 9.20904 4 9.4757 4C9.74237 4 9.9657 4.05333 10.1457 4.16C10.3324 4.26 10.4757 4.40333 10.5757 4.59C10.6824 4.77 10.749 4.98 10.7757 5.22H7.7057V5.9ZM13.2122 5.6V6.02H14.5422C14.6955 6.02 14.8255 6.03667 14.9322 6.07C15.0455 6.09667 15.1355 6.14 15.2022 6.2C15.2755 6.26 15.3289 6.32667 15.3622 6.4C15.4022 6.47333 15.4222 6.55667 15.4222 6.65C15.4222 6.83 15.3489 6.98333 15.2022 7.11C15.0622 7.23667 14.8422 7.3 14.5422 7.3H13.2122V8H14.7422C15.2689 8 15.6455 7.88 15.8722 7.64C16.1055 7.39333 16.2222 7.09667 16.2222 6.75C16.2222 6.45 16.1489 6.21667 16.0022 6.05C15.8555 5.88333 15.6555 5.76667 15.4022 5.7C15.1489 5.63333 14.8622 5.6 14.5422 5.6H13.2122ZM13.2122 5.8H14.4422C14.7289 5.8 14.9889 5.76 15.2222 5.68C15.4622 5.59333 15.6555 5.46667 15.8022 5.3C15.9489 5.12667 16.0222 4.91 16.0222 4.65C16.0222 4.35 15.9489 4.11 15.8022 3.93C15.6555 3.74333 15.4622 3.61 15.2222 3.53C14.9889 3.44333 14.7289 3.4 14.4422 3.4H13.2122V4.1H14.4422C14.6822 4.1 14.8722 4.15667 15.0122 4.27C15.1522 4.37667 15.2222 4.52 15.2222 4.7C15.2222 4.78667 15.2022 4.87 15.1622 4.95C15.1289 5.02333 15.0789 5.09 15.0122 5.15C14.9455 5.21 14.8622 5.25667 14.7622 5.29C14.6689 5.31667 14.5622 5.33 14.4422 5.33H13.2122V5.8ZM12.7422 3.4V8H13.5422V3.4H12.7422ZM17.3834 5.9H21.3134C21.3201 5.86 21.3234 5.82 21.3234 5.78C21.3234 5.74 21.3234 5.7 21.3234 5.66C21.3234 5.17333 21.2334 4.75667 21.0534 4.41C20.8734 4.05667 20.6201 3.78333 20.2934 3.59C19.9668 3.39667 19.5868 3.3 19.1534 3.3C18.7601 3.3 18.4034 3.38 18.0834 3.54C17.7701 3.7 17.5134 3.92333 17.3134 4.21C17.1134 4.49667 16.9801 4.83 16.9134 5.21C16.9001 5.29 16.8901 5.37 16.8834 5.45C16.8768 5.53 16.8734 5.61333 16.8734 5.7C16.8734 6.16 16.9668 6.57333 17.1534 6.94C17.3468 7.3 17.6068 7.58333 17.9334 7.79C18.2668 7.99667 18.6401 8.1 19.0534 8.1C19.4534 8.1 19.7868 8.05333 20.0534 7.96C20.3201 7.86 20.5468 7.72333 20.7334 7.55C20.9201 7.37 21.0901 7.16333 21.2434 6.93L20.5934 6.52C20.4934 6.68667 20.3734 6.83333 20.2334 6.96C20.0934 7.08 19.9334 7.17667 19.7534 7.25C19.5801 7.31667 19.3801 7.35 19.1534 7.35C18.8534 7.35 18.5934 7.28667 18.3734 7.16C18.1534 7.03333 17.9834 6.84667 17.8634 6.6C17.7434 6.35333 17.6834 6.05333 17.6834 5.7L17.7034 5.4C17.7034 5.11333 17.7668 4.86667 17.8934 4.66C18.0268 4.44667 18.2034 4.28333 18.4234 4.17C18.6434 4.05667 18.8868 4 19.1534 4C19.4201 4 19.6434 4.05333 19.8234 4.16C20.0101 4.26 20.1534 4.40333 20.2534 4.59C20.3601 4.77 20.4268 4.98 20.4534 5.22H17.3834V5.9ZM23.1699 10.2V3.4H22.3699V10.2H23.1699ZM27.0199 5.7C27.0199 5.2 26.9166 4.77333 26.7099 4.42C26.5033 4.06 26.2266 3.78333 25.8799 3.59C25.5399 3.39667 25.1599 3.3 24.7399 3.3C24.3599 3.3 24.0233 3.39667 23.7299 3.59C23.4433 3.78333 23.2166 4.06 23.0499 4.42C22.8899 4.77333 22.8099 5.2 22.8099 5.7C22.8099 6.19333 22.8899 6.62 23.0499 6.98C23.2166 7.34 23.4433 7.61667 23.7299 7.81C24.0233 8.00333 24.3599 8.1 24.7399 8.1C25.1599 8.1 25.5399 8.00333 25.8799 7.81C26.2266 7.61667 26.5033 7.34 26.7099 6.98C26.9166 6.62 27.0199 6.19333 27.0199 5.7ZM26.2099 5.7C26.2099 6.05333 26.1366 6.35333 25.9899 6.6C25.8499 6.84667 25.6599 7.03333 25.4199 7.16C25.1866 7.28667 24.9266 7.35 24.6399 7.35C24.4066 7.35 24.1766 7.28667 23.9499 7.16C23.7233 7.03333 23.5366 6.84667 23.3899 6.6C23.2433 6.35333 23.1699 6.05333 23.1699 5.7C23.1699 5.34667 23.2433 5.04667 23.3899 4.8C23.5366 4.55333 23.7233 4.36667 23.9499 4.24C24.1766 4.11333 24.4066 4.05 24.6399 4.05C24.9266 4.05 25.1866 4.11333 25.4199 4.24C25.6599 4.36667 25.8499 4.55333 25.9899 4.8C26.1366 5.04667 26.2099 5.34667 26.2099 5.7ZM28.783 8L30.483 5.6H29.603L27.903 8H28.783ZM31.703 8V3.4H30.903V8H31.703ZM31.233 5.46H29.803C29.6097 5.46 29.4464 5.43667 29.313 5.39C29.1864 5.33667 29.0897 5.26 29.023 5.16C28.9564 5.06 28.923 4.93333 28.923 4.78C28.923 4.62667 28.9564 4.5 29.023 4.4C29.0897 4.3 29.1864 4.22667 29.313 4.18C29.4464 4.12667 29.6097 4.1 29.803 4.1H31.233V3.4H29.803C29.4897 3.4 29.203 3.44667 28.943 3.54C28.6897 3.63333 28.4897 3.78 28.343 3.98C28.1964 4.18 28.123 4.44667 28.123 4.78C28.123 5.10667 28.1964 5.37333 28.343 5.58C28.4897 5.78 28.6897 5.92667 28.943 6.02C29.203 6.11333 29.4897 6.16 29.803 6.16H31.233V5.46ZM33.427 5.95H36.827V5.2H33.427V5.95ZM36.307 3.4V8H37.107V3.4H36.307ZM32.957 3.4V8H33.757V3.4H32.957ZM42.4613 4.2L42.5113 3.05L38.7113 7.2L38.6613 8.35L42.4613 4.2ZM39.4613 3.4H38.6613V8.35L39.4613 7.25V3.4ZM42.5113 3.05L41.7113 4.15V8H42.5113V3.05ZM44.5805 4.6H49.3805V3.8H44.5805V4.6ZM48.8105 1V8H49.6605V1H48.8105ZM44.1105 1V8H44.9605V1H44.1105Z" fill="#EF6C00"/>
</svg>
