<svg width="21" height="20" viewBox="0 0 21 20" fill="none" xmlns="http://www.w3.org/2000/svg">
<path d="M20.0395 4.84699C19.8105 3.92316 19.1358 3.19559 18.2792 2.94867C16.7264 2.5 10.5 2.5 10.5 2.5C10.5 2.5 4.27365 2.5 2.72085 2.94867C1.86419 3.19563 1.18949 3.92316 0.960496 4.84699C0.544434 6.52148 0.544434 10.0152 0.544434 10.0152C0.544434 10.0152 0.544434 13.5088 0.960496 15.1833C1.18949 16.1071 1.86419 16.8044 2.72085 17.0513C4.27365 17.5 10.5 17.5 10.5 17.5C10.5 17.5 16.7264 17.5 18.2792 17.0513C19.1358 16.8044 19.8105 16.1071 20.0395 15.1833C20.4556 13.5088 20.4556 10.0152 20.4556 10.0152C20.4556 10.0152 20.4556 6.52148 20.0395 4.84699V4.84699ZM8.46362 13.1871V6.84316L13.6676 10.0152L8.46362 13.1871V13.1871Z" fill="white"/>
</svg>
